<svg id="Capa_2" data-name="Capa 2" xmlns="http://www.w3.org/2000/svg" viewBox="0 0 429.77 448.41"><defs><style>.cls-1{fill:#963;}.cls-2{fill:#330;}</style></defs><title>Mesa de trabajo 7facebook_2</title><circle class="cls-1" cx="214.89" cy="224.2" r="199.59"/><path class="cls-2" d="M230.32,289.21q0,34,0,68.08c0,1.68-.39,2.21-2.14,2.18q-24.09-.47-48.2-.73c-1.64,0-2.18-.35-2.19-2.12q-.32-67.77-.72-135.54c0-1.63-.43-2-2-2-7.86.08-15.72,0-23.59.06-1.4,0-1.87-.31-1.86-1.8q.09-19.25,0-38.49c0-1.54.51-1.77,1.88-1.76,7.73.07,15.45,0,23.18.07,1.48,0,1.95-.27,2-1.88.39-12.75.48-25.52,1.64-38.24.75-8.32,1.49-16.81,6.08-24,8.87-13.92,21.2-22.89,38.21-23.76a237.71,237.71,0,0,1,52.14,3c6.56,1.12,5.48,1.36,5,6.41-1.06,11.6-3.26,23-4.94,34.57-.21,1.5-1,1.08-1.86,1-7.4-.84-14.81-1.66-22.28-1.34a72.44,72.44,0,0,0-8.43.82c-6.41,1-9.72,4.75-11,11.92a99.88,99.88,0,0,0-1,16.3c0,4.48.06,9-.05,13.45,0,1.49.42,1.79,1.83,1.79,13.8-.06,27.6,0,41.39-.08,1.77,0,2.31.29,2.19,2.22-.71,11.15-1.28,22.31-2.56,33.41-.73,6.4-.7,6.4-7.1,6.4-11.24,0-22.49,0-33.73,0-1.67,0-2,.48-2,2.07Q230.36,255.17,230.32,289.21Z"/></svg>