<svg id="Capa_2" data-name="Capa 2" xmlns="http://www.w3.org/2000/svg" viewBox="0 0 429.77 448.41"><defs><style>.cls-1{fill:#e50204;}.cls-2{fill:#e60f0c;}.cls-3{fill:#e50e0c;}.cls-4{fill:#e50b0a;}.cls-5{fill:#e60f0d;}.cls-6{fill:#e61814;}.cls-7{fill:#e50d0b;}.cls-8{fill:#e50a0a;}.cls-9{fill:#e50305;}.cls-10{fill:#fefdfc;}.cls-11{fill:#fefdfd;}.cls-12{fill:#fefcfb;}</style></defs><title>Mesa de trabajo 5</title><path class="cls-1" d="M359.22,218.26c0,13.42-.58,29.11-.12,44.83.38,13.32-1.66,26.58-4.3,39.68A171.9,171.9,0,0,1,348.88,324c-5.7,16.84-17.05,28.44-32.68,36.34-14.2,7.17-29.31,11-45,12.75-20,2.29-40.12,1.32-60.21,1.08-15.17-.19-30.34-.46-45.49-1.24-13.74-.72-27.62-1-40.93-4.74-19.09-5.4-33.48-16.93-42.06-35.06-6.11-12.91-8.68-26.78-10.34-40.85-2.59-21.89-3.36-43.88-3.79-65.9-.29-14.9-1.05-29.81-.29-44.71.92-17.9,3-35.64,7.76-53,7.55-27.52,25.45-44.24,53.1-50.62,19.76-4.57,39.84-5.93,60.08-5.88,11.31,0,22.6-1,33.92-1.06,15.1-.07,30.17.45,45.25.9,9.74.29,19.46.56,29.08,2.33,11,2,21.41,5.38,30.69,11.75,12.62,8.66,19.75,21.06,23.91,35.45,3.32,11.43,4.8,23.18,5.65,35C358.93,176.33,359.53,196.15,359.22,218.26ZM216.09,113.89a3.47,3.47,0,0,0,.21.64c.91.82,1.84,1.62,2.75,2.44,9.94,8.89,15.77,19.67,14.81,33.33-.88,12.37-6.49,22.65-15.05,31.34-7.05,7.15-15.22,12-25.67,13a137.35,137.35,0,0,1-33-.41c-1.41-.21-2-.07-2.15,1.56-.26,3-.89,5.89-1.28,8.85a180.82,180.82,0,0,0-1.8,18.58c0,1.16,0,1.9,1.59,1.93,8.25.16,16.49.24,24.74,0q19.45-.52,38.92-1.13c1.67-.06,2.22.44,2.38,2.14,1.1,12.14,2.2,24.28,3.55,36.4,1.31,11.76,3,23.47,6.73,34.79,1.5,4.59,3.32,9.06,6.48,12.81,2.83,3.35,6.32,5,10.74,3.63a18.81,18.81,0,0,0,8.7-6.12,57.29,57.29,0,0,0,9-14.75c8.14-18.22,12.84-37.43,16.09-57,.45-2.74,1.46-3.44,3.9-3.45,10.35-.07,20.71-.24,31.06-.32,1.93,0,2.63-.67,2.66-2.73.1-7,.41-14,.72-21,.16-3.61.22-3.59-3.39-3.49-19.81.54-39.63,1-59.44,1.59-1.59,0-2.23-.28-2.38-2.07-.4-5-.27-10-.41-15,0-2,.72-2.68,2.68-2.86,9.61-.87,19.23-1.51,28.87-1.85,11.13-.38,22.26-.74,33.39-1,1.63,0,2-.47,2.05-2.08.08-7.28.23-14.56.53-21.83.08-1.9-.21-2.44-2.28-2.4-14.56.29-29.09,1.29-43.64,1.79-6.48.21-13,.66-19.45.22-1.31-.09-2-.31-2.06-1.93q-.09-8.16-.51-16.3c-.11-2,.4-2.71,2.5-2.81,22.09-1,44.17-1.76,66.27-1,1.72.06,2.09-.25,1.94-2-.57-6.2-1-12.41-1.44-18.62-.39-5.18-.39-5.17-5.68-5.18-17.47,0-34.93,0-52.39.53C250.32,112.73,233.33,113.32,216.09,113.89ZM181.26,296.16a34.23,34.23,0,0,0,6.06-.89c24.48-7.64,27.37-35.17,16.91-49.62-7.32-10.11-17.88-15-29.66-17.44-8-1.66-16.18-2-24.32-2.45-12.69-.75-25.39-1.07-38.06.65-1.72.23-2.1.87-2.14,2.47-.24,8.41-.75,16.81-.9,25.23-.45,25.51-.72,51-3.31,76.44-.19,1.87.36,2.37,2.19,2.48a861.23,861.23,0,0,0,87.57.23c3.76-.17,7.58.05,11.46-.86C197.47,320.92,188.11,309.6,181.26,296.16Zm28.88,38.69a19.73,19.73,0,0,0-.41,2.13c-.94,9.95-.91,20-2.25,29.89-.17,1.25.32,1.38,1.39,1.51a120.29,120.29,0,0,0,14.44.72,440.36,440.36,0,0,0,48-3,163,163,0,0,0,40.09-9.3,41.12,41.12,0,0,0,14.24-8.75c10.39-10,18.34-21.55,22.09-35.76,6.56-24.89,7.13-50.22,6-75.71-.12-2.77-1.2-3.29-3.59-3.28-8.59,0-17.19,0-25.77-.24-2.3-.08-2.73.7-3,2.6-1.71,10.65-3.39,21.3-5.34,31.9-2.36,12.85-5.4,25.53-10.89,37.5-7.91,17.26-20.4,29.62-39.26,33.5C247.2,342.43,228.43,342,210.14,334.85Zm2.44-224.44c0-6.27,0-12.66,0-19.06q0-6.18.17-12.36c0-1.93-.61-2.64-2.72-2.59-14.9.34-29.81.8-44.66,2.27-14.05,1.39-28,3.45-41.66,7.25C105.93,90.86,93.5,101.42,87,119A219.48,219.48,0,0,0,76.64,158.3c-3.51,20.74-5.14,41.59-3.35,62.62.44,5.23.45,5.23,5.5,5.16h1.32c9-.08,18.08-.2,27.12-.22,1.8,0,2.29-.69,2.45-2.44,1.27-14.33,1.74-28.71,2.44-43.07.65-13.32.84-26.71,3.82-39.76,3.82-16.72,13.92-27.53,31.07-31.11a122.36,122.36,0,0,1,15.36-2.17C179.32,106,196.28,104.5,212.58,110.41Zm-39.42,55.71c7.47-.07,15.09-8,15-15.56-.07-6.85-6.51-12.6-14.39-12.33-9.12.32-13.72,5.17-14.08,14.61C159.42,160.18,165.86,166.2,173.16,166.12Z"/><path class="cls-2" d="M375.79,255.17c-2.43-.87-4.86-1.76-7.29-2.61-1.06-.36-2.19-.42-2.16-2.09s1.3-1.66,2.29-2a50.19,50.19,0,0,0,7.13-2.88h-7.32c-1,0-2.1.35-2.11-1.43s1.05-1.66,2.23-1.65c4.21,0,8.42,0,12.63,0,.88,0,2.15-.39,2.07,1.2-.07,1.26.7,2.84-1.37,3.44-3.44,1-6.83,2.19-10.73,3.46,3.68,1.28,6.9,2.54,10.21,3.5,2,.56,2.05,1.82,1.9,3.38-.18,1.95-1.71,1.11-2.64,1.13-4.13.09-8.25,0-12.37.06-1.28,0-1.91-.24-1.92-1.71s.89-1.41,1.88-1.4c2.5,0,5,0,7.49,0Z"/><path class="cls-3" d="M94.26,366.39c3.5,1.07,3.58,1.25,1.78,4.24-.45.75-.88,1.51-1.34,2.26s-.88,1.41-1.54,2.46c2.59-.61,3.8-2.61,5.57-3.74.92-.58,1.46-2.06,3.08-1.11s.83,2.26.6,3.45a36.84,36.84,0,0,0-1,6.85l3.6-5.86c.59-1,1-1.95,2.54-1s.66,1.68.18,2.5c-2.15,3.61-4.3,7.22-6.53,10.78-.4.65-.44,2.22-1.94,1.29-1.18-.73-2.87-1-2.29-3.16A57.37,57.37,0,0,0,98.83,375c-2.51,2.09-5.15,4-7.48,6.3-1.63,1.59-2.81,1.13-4.2-.07s.18-2,.61-2.76c1.77-3.22,3.73-6.34,5.58-9.51.3-.51,1-1,.45-1.75l-.06.05c.85.23.61-.36.58-.79Z"/><path class="cls-4" d="M156,57.11c-.64,2.51-1.26,5-1.91,7.53-.23.92-.35,1.81-1.74,1.86S150.7,66,150.29,65c-.94-2.21-1.94-4.39-3.21-7.23-1.22,2.89.35,4.89.08,6.94-.13,1,.8,2.21-1.22,2.42s-1.6-1-1.7-2c-.39-4.19-.8-8.37-1.17-12.56-.08-.87-.63-2.08,1-2.13,1.24,0,2.71-1.08,3.51,1,1.29,3.34,2.78,6.59,4.42,10.42,1-3.94,2.1-7.3,2.73-10.75.38-2.15,1.83-1.79,3.1-1.87,1.79-.12,1.19,1.38,1.28,2.28.39,4,.76,8,1,12,.05.87,1,2.31-1.18,2.47s-1.68-1.31-1.82-2.39c-.27-2.14-.43-4.29-.64-6.44Z"/><path class="cls-5" d="M322.71,369.25c1.76-2.2,3.48-2.35,5.79-1,1.91,1.11,3.93,2.87,6.54,1.21,1.07-.68,1.28-1.23.52-2.25s-1.21-1.92-1.83-2.88-1.21-1.61.24-2.5c1.28-.79,1.74-.43,2.4.66,2.3,3.73,4.63,7.44,7.05,11.1.82,1.25.66,1.92-.65,2.64-2.07,1.13-4,2.49-6.08,3.66a4.38,4.38,0,0,1-5.38-.3,4.33,4.33,0,0,1-1.42-5.42c.66-1.46.12-1.64-1-2.09C326.8,371.25,324.79,370.22,322.71,369.25Zm17.13,4.84c0-1-1.89-2.95-2.51-2.58a37.72,37.72,0,0,0-3.91,2.58,1.72,1.72,0,0,0-.38,2.54,1.81,1.81,0,0,0,2.53.59c1.3-.68,2.53-1.52,3.77-2.32C339.61,374.73,340,374.54,339.84,374.09Z"/><path class="cls-2" d="M363.31,329.11c2.84,1.39,5.72,1.78,8.42,2.7.87.3,2,.16,1.4,1.77-.44,1.23-.77,1.68-2.19,1.22-4.17-1.34-8.39-2.48-12.59-3.73-.68-.2-1.78-.09-1.62-1.27s.3-2.17,1.76-2.58c3.59-1,7.14-2.22,11-3.43-2.81-1.41-5.66-1.92-8.4-2.71-1.32-.38-1.67-.78-1.33-2.15s1.09-1.14,2.12-.84c4.11,1.21,8.26,2.29,12.36,3.53.68.2,2.07-.1,1.86,1.29-.15,1.07-.39,2.18-1.78,2.61C370.71,326.61,367.16,327.84,363.31,329.11Z"/><path class="cls-6" d="M176.5,64.27c1.24-.42.68-1.47.69-2.22.06-4,.08-8,0-12.07,0-1.48.45-2,1.95-1.93,1.74.12,3.5,0,5.24,0,4.31.2,6.82,3.09,7,7.91.14,5.28-2.11,8.33-6.52,8.8a33.73,33.73,0,0,1-8.34-.1A1.56,1.56,0,0,1,176.5,64.27Zm4-7.79a27.57,27.57,0,0,1,0,3.15c-.23,1.87.52,2.38,2.34,2.33,4.35-.11,6.36-3.13,5-7.82-.73-2.6-2.54-3.55-6.07-3-2.47.36-.87,2.34-1.25,3.54A6.21,6.21,0,0,0,180.47,56.48Z"/><path class="cls-7" d="M375.81,149.63c-3.61.33-6.48.57-9.35.88-1.09.13-1.79.12-1.9-1.31s.42-1.6,1.59-1.7c4.28-.36,8.54-.86,12.82-1.21.75-.06,1.93-.63,2.26.57a2.51,2.51,0,0,1-.78,3c-2.89,2.21-5.65,4.58-9.12,7.44,3.44-.3,6.08-.54,8.72-.76,1.14-.1,2.23-.35,2.32,1.49s-.89,1.56-2,1.65c-4.19.36-8.37.79-12.57,1.08-.7.05-1.9.9-2.17-.51-.19-1-.45-2.18.73-3.09C369.38,154.9,372.26,152.5,375.81,149.63Z"/><path class="cls-7" d="M68.58,104c-2.57-1.29-5.13-2.59-7.7-3.85-.86-.42-1.57-.76-.82-1.89.54-.82.81-1.64,2.16-.92,4.07,2.2,8.23,4.25,12.35,6.37.51.26,1.27.4.88,1.27s-.74,2-2.26,2.15c-3.64.3-7.27.85-11.4,1.35,2.5,1.86,5,2.67,7.29,4,.72.42,2.48.19,1.61,2.18-.8,1.81-1.75,1.23-2.86.67-3.82-1.94-7.65-3.86-11.43-5.86-.55-.29-1.84-.29-1.32-1.5.38-.89.59-1.94,2-2.08,3.83-.36,7.64-.89,11.45-1.36Z"/><path class="cls-3" d="M60,250.1c.88,2.7,0,4.19-2.09,5.48-1.76,1.1-4,1.92-4.3,4.54-.17,1.59.21,2.53,2.08,2.24,1-.17,2.09-.09,3.13-.22,1.37-.16,1.81.41,1.86,1.75.06,1.49-.77,1.45-1.81,1.48-3.94.08-7.87.11-11.8.36-2.23.13-3.45-.32-3.18-2.9a31.75,31.75,0,0,0-.19-4.45c-.11-2.57.2-4.94,3-6,2.39-.9,4.11-.18,6.39,2.74A31.51,31.51,0,0,1,60,250.1Zm-9.41,9.54c0-.7,0-1.39,0-2.09a2.13,2.13,0,0,0-2-2.32c-1.35-.07-2,1-2,2.25s0,2.6,0,3.9c0,.73.28,1,1,1.18C50.18,263,50.69,262.58,50.6,259.64Z"/><path class="cls-3" d="M56,314.63c2.59-.42,5.16-.9,7.75-1.23.9-.11,2.18-1.3,2.63.77.4,1.87-.69,1.93-2,2.14-4,.66-7.92,1.43-11.89,2.11-.83.14-2,1-2.46-.36a2.75,2.75,0,0,1,.71-3.32c2.16-1.92,4.18-4,6.23-6,.34-.34.92-.59.71-1.45-2.59-.27-5.06.75-7.6,1.07-1.13.15-2,.41-2.21-1.22s.53-1.75,1.71-1.94c4.06-.66,8.1-1.44,12.17-2.05.81-.13,2-.93,2.53.31a2.45,2.45,0,0,1-.69,3.23c-2.38,2.07-4.55,4.37-6.78,6.59C56.51,313.6,56,313.86,56,314.63Z"/><path class="cls-7" d="M116.08,72.36c-1.85,1.5-3.51,1.72-5.37.12a24.31,24.31,0,0,0-4-2.51,3.16,3.16,0,0,0-3.45.53c-1.19.82.12,1.66.32,2.46a14.93,14.93,0,0,0,1.1,2.66c.47,1,.56,1.68-.76,2.18-1.16.45-1.69.33-2.17-.84C100,72.77,98.2,68.61,96.4,64.44c-.38-.87-.58-1.51.65-2,2.36-.89,4.65-2,7-2.91,2.06-.81,4-.6,5.43,1.26a4.39,4.39,0,0,1,.36,5.58c-.67,1-.6,1.29.45,1.9A28.41,28.41,0,0,1,116.08,72.36ZM104.93,62.21c-1.44.67-3.75.69-4.69,2.59-.27.56.21,2.74,1.72,3.06s5.47-2.46,5.45-3.5C107.39,63.05,106.75,62.21,104.93,62.21Z"/><path class="cls-8" d="M190.71,389.5c-.17,3.49-.32,6.33-.44,9.17-.05.89.08,1.84-1.31,1.7-1.14-.12-2-.31-1.88-1.84.26-4.38.37-8.76.57-13.14,0-.72-.19-1.72,1-1.83s2-.21,2.73,1c1.91,3.22,4,6.35,6.16,9.84.73-3.1.39-5.82.62-8.5.07-.76-.56-2.08,1.19-2.05,1.5,0,1.93.66,1.85,2.1-.21,4.2-.28,8.41-.47,12.61,0,.69.53,1.86-.48,2s-2.42.42-3.25-1c-1.58-2.73-3.3-5.38-5-8C191.69,391,191.37,390.51,190.71,389.5Z"/><path class="cls-3" d="M285.94,64.73c-2.58.68-4.1,0-5.29-2.3-1-2-1.88-4.43-4.86-4.59-1.31-.08-2,0-1.86,1.57.11,1.3,0,2.62,0,3.94,0,.8.1,1.6-1.16,1.44-1-.13-2-.07-1.93-1.51q.12-7.1.16-14.19c0-1,.5-1.14,1.33-1.11,2.63.08,5.26,0,7.88.19a4.18,4.18,0,0,1,4.12,3.11c.57,2.08.32,4.15-1.7,5.33-1.39.82-1,1.34-.31,2.34C283.62,60.79,284.73,62.76,285.94,64.73ZM277,54.94c.75,0,1.36,0,2,0,1.35-.08,2.46-.56,2.4-2.14S280.2,51,279,50.89c-1-.07-1.93,0-2.87-.15-1.5-.24-1.85.35-2,1.81C273.85,55.19,275.37,55.12,277,54.94Z"/><path class="cls-8" d="M229.93,56.85c0-2.7,0-5.4,0-8.1,0-1,0-1.81,1.44-1.86s1.6.79,1.59,1.94c0,4.3,0,8.6,0,12.9,0,.71.66,1.92-.81,2.06-1.11.11-2.13.15-2.9-1.13a66.22,66.22,0,0,0-6.45-9c0,2.85-.06,5.7,0,8.55,0,1.28-.42,1.62-1.66,1.65-1.39,0-1.56-.58-1.54-1.72,0-4.39,0-8.78.05-13.17,0-.66-.59-1.78.61-1.95s2.2-.42,3,.87c1.95,3.09,4,6.09,6.05,9.13Z"/><path class="cls-7" d="M134.79,380.43c3.62-.94,4.57,1.38,5.67,3.64.85,1.76,1.42,3.83,4,4,1.25.1,1.77-.23,1.83-1.46s.22-2.44.25-3.67.72-1.54,1.87-1.49,1.38.74,1.28,1.74c-.46,4.54-.93,9.07-1.31,13.62-.11,1.29-.65,1.59-1.85,1.41-2.42-.37-4.87-.6-7.3-.95a4.25,4.25,0,0,1-3.94-3.32c-.48-2.08,0-4.09,1.88-5s1.29-1.72.58-2.94C136.7,384.2,135.79,382.32,134.79,380.43Zm6.51,10.16c-1.72-.11-2.86.59-2.94,1.88-.11,1.66,1.09,2,2.36,2.2,1.12.18,2.24.35,3.37.47.47.06,1,.23,1.31-.44,1-2,.22-3.55-2-3.82C142.68,390.8,142,390.69,141.3,390.59Z"/><path class="cls-8" d="M374.55,209.14,367.47,214c-.75-2.49-.25-4.24,2-5.29a6.24,6.24,0,0,0,.86-.59c1.87-1.37,4.68-2.53,3.55-5.36-.81-2-3.35-.75-5.08-.79-1.44,0-1.74-.52-1.86-1.75-.16-1.6.87-1.41,1.83-1.42,4.47-.05,8.94-.08,13.4-.2,1.29,0,1.69.45,1.63,1.68-.07,1.84-.05,3.68,0,5.52.06,2.67-.17,5.16-3.26,6.14C377.71,212.81,375.86,211.44,374.55,209.14Zm6.66-4.3H381c0-.7,0-1.39,0-2.09,0-1.56-1.16-1-1.86-1s-2.14-.62-2.27.84a21.15,21.15,0,0,0,.23,4.42,2,2,0,0,0,2.15,1.83c1.11-.07,1.63-.91,1.77-2C381.11,206.22,381.15,205.53,381.21,204.84Z"/><path class="cls-7" d="M82.72,355.13c-4.32,2.31-8.18,5.33-12.22,8.05-1.23.83-1.83.87-2.57-.48-.93-1.67-2.18-3.17-3.08-4.86-2.06-3.86-.73-7.76,3.34-10.22,4.46-2.7,8.26-2.3,10.82,1.34,1.38,2,3.16,3.73,3.65,6.23Zm-15.81.25c.08.77,1,1.73,1.67,2.85.74,1.28,1.45,1.64,2.78.57,1.91-1.52,4-2.78,6-4.21.39-.28,1.15-.32.87-1.3-.62-2.22-3.19-4.55-5-4.31C70.38,349.36,66.84,352.59,66.91,355.38Z"/><path class="cls-5" d="M375.77,183.94c2.1,0,4.2.06,6.3,0,1.07,0,1.59.15,1.58,1.4,0,3.06.09,6.13.17,9.2,0,1.12.05,2-1.59,2s-1.41-1.15-1.43-2.13c0-1.76-.05-3.51,0-5.27s-.75-2-2.29-2c-1.77,0-1.41,1.06-1.39,2.09,0,1.67,0,3.34,0,5,0,1.08,0,1.81-1.48,1.77s-1.56-.67-1.53-1.79a39.28,39.28,0,0,1,0-4.47c.31-2.41-.71-2.71-2.79-2.42-1.28.18-1.62.57-1.56,1.76.09,2.19,0,4.39.12,6.58,0,1-.33,1.39-1.36,1.38s-1.39-.34-1.41-1.37c-.06-3.15-.13-6.3-.36-9.45-.11-1.57.62-2,1.94-2h7.11Z"/><path class="cls-5" d="M55.92,115.19c-.62,2-1.19,4.22-2,6.35-.53,1.4,0,1.85,1.23,2.16s2,.56,2.33-1c.39-1.78,1.09-3.5,1.58-5.27.31-1.1.86-1.23,1.92-1,1.26.31,1.21.92.88,1.9-.56,1.66-.88,3.41-1.56,5s0,2.14,1.41,2.53,2.26.63,2.65-1.21c.46-2.13,1.35-4.16,1.88-6.28.29-1.14.83-1.17,1.68-.81.67.29,1.56.32,1.18,1.56-1.05,3.33-2,6.7-3,10.06-.29,1-.79,1.08-1.75.77-4.41-1.41-8.86-2.73-13.3-4-.88-.27-1.36-.64-1-1.67,1-3.17,2-6.34,2.93-9.53.25-.88.69-1.12,1.51-.86C55.16,114,56,114,55.92,115.19Z"/><path class="cls-2" d="M338.49,62.31a8.29,8.29,0,0,1,.85.37c2.91,2.11,5.82,4.21,8.72,6.33,1.12.81,0,1.34-.3,1.93-.36.75-.82,1-1.63.39-1.79-1.41-3.7-2.66-5.46-4.1-1.27-1-1.63,0-2.15.75s-1.44,1.41-.06,2.31c1.61,1,3.09,2.3,4.69,3.37.92.62,1.08,1.11.45,2.1s-1.24.9-2.06.28c-1.48-1.09-3.1-2-4.47-3.23-1.58-1.39-2,0-2.75.87s-1.28,1.77.22,2.67c1.8,1.08,3.43,2.43,5.19,3.57,1,.64,1.28,1.14.49,2.24s-1.33,1-2.27.25c-2.52-1.9-5.11-3.7-7.67-5.54-.85-.6-1.44-1.15-.58-2.3,2.85-3.78,5.6-7.62,8.38-11.45A3.83,3.83,0,0,0,338.49,62.31Z"/><path class="cls-2" d="M230.46,401.52c-4.67,0-8.07-3.62-8.06-8.52,0-5.11,3.45-8.92,8-8.87a8.26,8.26,0,0,1,8.21,8.47C238.67,398,235.4,401.54,230.46,401.52Zm-4.71-8.63c0,3.64,1.75,5.71,4.74,5.72s5-2.3,4.9-5.9c0-3.37-2.08-5.67-4.95-5.62S225.72,389.38,225.75,392.89Z"/><path class="cls-4" d="M50.31,198.78a48.53,48.53,0,0,0-5.26,0c-2.36.27-3.22-.48-3-2.94A68.83,68.83,0,0,0,42.2,188c0-1.21.31-1.71,1.6-1.75s1.55.67,1.51,1.77c-.08,2,0,4-.14,6-.08,1.34.5,1.66,1.69,1.57s2.13.19,2-1.51c-.09-1.92.08-3.85,0-5.78,0-1,.28-1.39,1.34-1.36s1.69.17,1.61,1.42c-.11,1.66,0,3.33-.22,5-.22,1.86.54,2.37,2.32,2.44s2.14-.78,2.1-2.34c-.06-1.92.14-3.85.14-5.77,0-1,.2-1.61,1.43-1.61s1.44.6,1.41,1.62c-.08,3.24-.19,6.48-.16,9.71,0,1.4-.69,1.56-1.79,1.54-2.27,0-4.55,0-6.82,0Z"/><path class="cls-7" d="M368.2,275.62c4.54.37,9.08.78,13.63,1.1,1.16.08,1.54.54,1.4,1.65-.23,1.91-.32,3.84-.62,5.74-.71,4.39-3.89,6.56-8.81,6.14s-7.95-3.28-7.7-7.82c.12-2.3-.13-4.69,1-6.88Zm11.69,5.95c.52-1.5-.16-1.85-1.65-1.89-2.43-.07-4.86-.42-7.29-.59-.54,0-1.16-.45-1.66.21-.94,1.24-.48,5.46.89,6.37a7.69,7.69,0,0,0,7.22.93C379.7,285.75,380,283.74,379.89,281.57Z"/><path class="cls-2" d="M92.76,67.85c-.14.85-.78,1.05-1.26,1.37-1.6,1.07-3.17,2.19-4.85,3.13-1.3.73-1.1,1.37-.4,2.45s1.21,1.5,2.42.6c1.54-1.14,3.24-2.06,4.84-3.14.78-.53,1.33-.67,1.83.35.39.79,1,1.45-.18,2.15-1.72,1-3.31,2.3-5.07,3.26s-.34,1.82.07,2.64.86,1.92,2.27.85c1.73-1.33,3.65-2.4,5.47-3.61.84-.56,1.49-1.1,2.22.26.56,1,.66,1.61-.47,2.3q-4,2.45-7.94,5.11c-1,.7-1.64.86-2.41-.39C87,81.39,84.51,77.67,82,74c-.68-1-.9-1.64.4-2.41,2.63-1.55,5.13-3.33,7.72-5,.44-.27.92-1.07,1.55-.41A9,9,0,0,1,92.76,67.85Z"/><path class="cls-5" d="M337.27,360c2.54-2.7,5.18-5.51,7.81-8.33.52-.54.73-1.25,1.74-.24,3.21,3.23,6.6,6.29,10,9.37,1,.94,1.32,1.7.23,2.82-2.16,2.19-4.23,4.45-6.31,6.7-.68.73-1.18,1.07-2.1.17s-.79-1.48.05-2.32c1.5-1.49,2.81-3.15,4.32-4.61,1.18-1.15.14-1.64-.47-2.3s-1.36-1.35-2.33-.21c-1.25,1.47-2.66,2.79-3.93,4.25-.75.86-1.26.86-2.08.05s-.8-1.37,0-2.15c1.07-1,1.95-2.28,3.07-3.24,1.68-1.44,1.56-2.49-.2-3.78-.92-.67-1.38-1-2.23.06-1.06,1.38-2.43,2.53-3.51,3.92C339.9,361.93,338.64,362.67,337.27,360Z"/><path class="cls-5" d="M366.43,123.63a7.94,7.94,0,0,1-7.65-8.32c.26-5.09,4.22-7.88,9.56-8a7.84,7.84,0,0,1,7.79,8.15C376.07,120.17,371.9,123.68,366.43,123.63Zm.18-3.21c3.66,0,6.64-2.38,6.62-5.3a4.65,4.65,0,0,0-4.65-4.65c-3.84,0-6.79,2.12-6.86,5A4.64,4.64,0,0,0,366.61,120.42Z"/><path class="cls-4" d="M256.5,56c0-2.37,0-4.74,0-7.1,0-1.1.34-1.53,1.52-1.49,3.15.1,6.31.1,9.47.11.92,0,1.54.15,1.39,1.31-.12,1-.11,1.84-1.59,1.71-2-.16-4.06.15-6-.1-2.33-.28-1.41,1.4-1.66,2.35-.39,1.49.57,1.52,1.64,1.5a32.85,32.85,0,0,1,4.21,0c1.08.12,2.89-.75,2.74,1.61s-1.77,1.11-2.76,1.21a13.2,13.2,0,0,1-3.66-.15c-2.26-.39-2.29,1.06-2.47,2.61-.23,2,1.07,1.79,2.31,1.8,1.93,0,3.86.08,5.79.11,1,0,1.63.22,1.62,1.47s-.57,1.45-1.62,1.43c-3.25-.06-6.49-.1-9.74-.08-1.1,0-1.56-.31-1.52-1.49.07-2.28,0-4.56,0-6.83Z"/><path class="cls-8" d="M53.07,280.36c-1.23,0-2.46,0-3.69,0-4.58.15-4.57.15-4.72-4.51,0-1.84-.18-3.68-.26-5.51,0-1-.54-2.08,1.24-2.25,2-.18,1.57,1.17,1.64,2.19.13,1.83.22,3.68.19,5.52s1.29,1.35,2.35,1.4,1.76-.11,1.57-1.56c-.26-1.9-.19-3.85-.33-5.77-.08-1.07.15-1.61,1.39-1.58s1.57.39,1.56,1.52c0,1.49.09,3,.14,4.47.09,2.63,1,3.22,3.58,2.48,1.11-.32.71-1.06.7-1.65a55.11,55.11,0,0,0-.32-6.56c-.23-1.62.77-1.4,1.67-1.58,1.14-.23,1.3.36,1.34,1.31.12,3.15.24,6.31.54,9.45.16,1.69-.49,2.08-2,2.08-2.19,0-4.38.22-6.57.36Z"/><path class="cls-4" d="M199.19,64.24c-6,.53-6,.53-6.33-5.57-.14-2.89-.31-5.77-.49-8.65-.07-1.17,0-2,1.59-2.05,3-.07,5.94-.32,8.91-.47.82,0,1.79-.34,1.83,1.13s-.46,1.91-1.8,1.92c-1.84,0-3.68.21-5.51.15s-1.63,1.06-1.69,2.24c-.07,1.42.71,1.55,1.81,1.49,1.75-.11,3.51,0,5.24-.26,1.38-.18,1.6.37,1.7,1.56.12,1.39-.64,1.31-1.58,1.34-1.74.07-3.49.33-5.24.31-1.44,0-1.82.6-1.57,1.89.21,1.08-.37,2.65,1.73,2.44s4.37-.27,6.55-.48c1-.1,1.46.21,1.4,1.26-.05.89.06,1.8-1.3,1.76C202.69,64.2,200.94,64.24,199.19,64.24Z"/><path class="cls-7" d="M155.87,395.76a20.88,20.88,0,0,1,2.62.22c1.6.33,1.78-.49,2-1.83.23-1.54-.4-1.8-1.67-1.85-1.83-.06-3.67-.24-5.51-.36-.9-.06-1.52-.29-1.35-1.41.15-.94.24-1.67,1.56-1.51,1.91.23,3.85.22,5.77.39,2.3.19,1.49-1.66,1.78-2.72.4-1.42-.59-1.47-1.66-1.52-2.1-.11-4.19-.38-6.29-.48-1.11-.06-1.52-.47-1.51-1.6,0-1.31.64-1.34,1.68-1.25,3.14.28,6.3.53,9.45.62,1.45,0,1.69.57,1.59,1.89-.37,4.45-.64,8.92-.9,13.38-.06,1,0,1.65-1.43,1.49-3.22-.35-6.46-.55-9.7-.74-1-.05-1.46-.24-1.25-1.37.17-.87,0-1.76,1.42-1.53a20.52,20.52,0,0,0,3.42,0Z"/><path class="cls-5" d="M63.82,341.34c-.76-2-1.47-4-2.27-5.91-.41-1-.67-1.67.7-2.18s1.71.06,2.08,1.12c.56,1.56,1.32,3.06,1.78,4.66s1.23,1.78,2.67,1.15c1.25-.54,2.18-.86,1.36-2.57-.91-1.89-1.42-4-2.25-5.89-.56-1.3.11-1.51,1.09-2,1.28-.67,1.29.28,1.55.92,1.21,3,2.36,6,3.59,9,.45,1.09.31,1.72-.9,2.17-4.35,1.61-8.68,3.29-13,5-.93.37-1.39.29-1.76-.7-1.12-3-2.28-6.07-3.52-9.06-.46-1.13-.08-1.55.93-1.95s1.56-.05,1.91,1c.7,2,1.51,3.92,2.21,5.9.32.89.78,1.45,1.72.93C62.47,342.48,63.74,342.68,63.82,341.34Z"/><path class="cls-3" d="M281.24,391.83c-2,.28-3.91.52-5.81.82-1,.15-1.45-.2-1.55-1.22s0-1.46,1.1-1.59c1.83-.21,3.62-.77,5.44-.88,2.07-.12,1.46-1.37,1.44-2.56,0-1.56-.72-1.95-2.15-1.68-2,.37-4,.64-6,1-1.09.18-1.78.06-2-1.32s.68-1.39,1.52-1.53c3.2-.53,6.4-1,9.59-1.58,1.06-.2,1.41.14,1.56,1.12q1.06,6.87,2.2,13.74c.18,1.05,0,1.57-1.2,1.74-3,.42-6.05,1-9.07,1.52-1,.16-1.82.33-2-1.18s.46-1.67,1.52-1.82c2-.29,4-.66,6-.86,1.75-.17,1.18-1.27,1.1-2.26C282.85,392.1,282.5,391.36,281.24,391.83Z"/><path class="cls-7" d="M381.48,294.73c-.48,3.42-.91,6.45-1.31,9.49-.14,1.06-.35,1.75-1.77,1.5s-1.25-.93-1.12-1.85c.28-1.81.56-3.63.82-5.45.16-1.1.59-2.23-1.33-2.34-1.42-.08-2.3-.15-2.37,1.67s-.6,3.45-.76,5.19c-.11,1.21-.58,1.38-1.68,1.22s-1.55-.42-1.3-1.65c.38-1.88.52-3.81.86-5.7.25-1.39-.48-1.69-1.6-1.71s-2.35-.79-2.59,1.12c-.27,2.17-.56,4.34-.94,6.49-.12.7.12,1.84-1.44,1.48-1.1-.26-1.75-.4-1.52-1.76.57-3.28,1.06-6.57,1.49-9.86.14-1.08.62-1.24,1.56-1.1,4.59.67,9.18,1.36,13.78,1.91C381.59,293.53,381.59,294.17,381.48,294.73Z"/><path class="cls-2" d="M381.06,142c.21.63-.29,1-1.27,1.09s-1.48.16-1.61-1c-.23-2.08-.76-4.14-.95-6.22-.14-1.52-.87-1.59-2.1-1.45s-1.91.53-1.63,2c.35,1.8.49,3.64.82,5.45.17,1,.28,1.61-1.07,1.76-1.15.13-1.64-.17-1.79-1.27-.21-1.56-.54-3.11-.69-4.68-.16-1.8-.77-2.46-2.79-2.16s-1.69,1.39-1.45,2.74c.33,1.89.53,3.81.8,5.72.11.75.51,1.59-.82,1.66-1,.06-1.85.16-2-1.29-.4-3.12-1-6.23-1.5-9.33-.22-1.27,0-1.92,1.49-2.11,4.43-.58,8.83-1.29,13.24-2,1-.15,1.6-.17,1.77,1.13C379.89,135.17,380.47,138.36,381.06,142Z"/><path class="cls-7" d="M214.94,392.39c0,2.18,0,4.37,0,6.55,0,1.14-.13,1.76-1.54,1.66-3-.21-5.95-.27-8.92-.33-1.11,0-1.76-.19-1.73-1.58,0-1.62,1.08-1.3,2-1.28,1.84,0,3.68.09,5.5.3,1.32.16,1.75-.38,1.77-1.55s.25-2.4-1.52-2.42-3.5-.15-5.25-.09c-1.26.05-1.68-.4-1.68-1.64,0-1.44.86-1.18,1.76-1.14,1.49.08,3,.09,4.46.1,1.27,0,2.54.41,2.52-1.83,0-2-.67-2.57-2.53-2.49s-3.67-.13-5.51-.11c-1.13,0-1.54-.38-1.47-1.54s.45-1.53,1.6-1.47q4.71.27,9.44.37c1.37,0,1.73.64,1.67,1.93-.11,2.18,0,4.37,0,6.56Z"/><path class="cls-5" d="M53.91,157.79a9.3,9.3,0,0,0-.25,1c-.93,5.85-.93,5.87,4.88,6.65,1.07.14,1.78.19,1.62,1.66s-.76,1.69-2,1.51c-4.42-.62-8.85-1.17-13.27-1.75-1-.13-1.87-.25-1.53-1.72.29-1.26.66-1.64,2.08-1.44,4.73.65,4.67.55,5.23-4.16.21-1.79-.13-2.64-2.06-2.53-.77,0-1.56-.26-2.34-.29-1.27,0-1.82-.41-1.59-1.89s.82-1.42,2-1.27c4.42.59,8.85,1.09,13.28,1.64.93.12,2,.08,1.58,1.64-.29,1.19-.57,1.85-2,1.55A54,54,0,0,0,53.91,157.79Z"/><path class="cls-8" d="M55,152.33c-5,0-8.82-3.39-8.88-7.78a7.86,7.86,0,0,1,8.19-8.32c5.29,0,9.22,3.46,9.2,8.07S60,152.36,55,152.33Zm.26-3.15c3.13.14,5.18-1.59,5.35-4.5s-2.4-5.15-6.26-5.28c-3.13-.11-5.2,1.65-5.32,4.54C48.84,147.06,51.15,149,55.21,149.18Z"/><path class="cls-2" d="M298.17,384.41c-.47-1.59-.88-3.21-1.44-4.77s.38-1.71,1.45-2.11c1.33-.49,1.44.27,1.68,1.2,1.17,4.4,2.32,8.8,3.61,13.16.45,1.54-.42,1.74-1.46,2.11-1.27.45-1.44-.32-1.71-1.25-1.43-4.91-1.44-4.88-6.44-3.29-1.06.34-1.73.65-1.18,2,.41.95.41,2.08.81,3,.6,1.41-.14,1.79-1.25,2.21-1.53.59-1.55-.57-1.79-1.43-1.17-4.3-2.23-8.64-3.51-12.91-.46-1.55.3-1.63,1.38-2.09,1.57-.68,1.5.45,1.81,1.27a7.08,7.08,0,0,1,.17.77c1.31,5,2.31,5.44,7,3.22C297.81,385.28,298.35,385.14,298.17,384.41Z"/><path class="cls-3" d="M316.27,70.65c-.93-.46-2.42-.45-1.53-2.41,1.92-4.2,3.7-8.48,5.43-12.77.49-1.22,1.06-1.09,2-.67s1.72.65,1,1.83a2.44,2.44,0,0,0-.1.24c-1.83,5-1.81,5,3.24,6.74,1,.36,1.61.36,2-.78a17.88,17.88,0,0,1,1.22-2.89c.37-.68.28-2.13,1.88-1.25,1.11.62,1.83.94,1.11,2.49-1.89,4-3.55,8.17-5.29,12.27-.38.9-.55,1.78-2,1-1.14-.61-1.66-1.09-.91-2.3a8.5,8.5,0,0,0,.54-1.19c1.78-4,1.72-3.88-2.34-5.81-2-1-2.94-.71-3.52,1.41a18.66,18.66,0,0,1-1.36,3.12C317.34,70.19,317.25,71,316.27,70.65Z"/><path class="cls-3" d="M357.92,96.47c-1.57.77-3.2,1.45-4.7,2.34-1.29.77-1.64,0-2.14-.91s-.48-1.46.61-2c4.26-2.06,8.5-4.16,12.67-6.39,1-.55,1.42-.26,1.69.59.22.69,1.38,1.48-.05,2.16-.23.11-.47.22-.7.35-4.17,2.24-4.1,2.2-2,6.45.74,1.48,1.43,2,2.93,1,.79-.53,1.73-.84,2.55-1.34,1.3-.8,1.57.17,2.08,1,.64,1.07.18,1.46-.74,1.92-4.15,2.09-8.29,4.18-12.37,6.38-1.36.73-1.64-.1-2.11-1s-.69-1.59.59-2a6.92,6.92,0,0,0,1.64-.8c1.16-.72,3.44-1,3.31-2.11-.22-1.88-1.54-3.64-2.42-5.44A.62.62,0,0,0,357.92,96.47Z"/><path class="cls-8" d="M240.66,392.87c0-2.27,0-4.55,0-6.83,0-1,.19-1.47,1.29-1.4.91.05,1.79-.06,1.82,1.24,0,1.57.19,3.15.14,4.72,0,1.19.38,1.38,1.52,1.39,5.59.07,5.56.12,5.47-5.32,0-1.05-.66-2.6,1.54-2.48,1.13.07,1.52.38,1.56,1.5.15,4.64.32,9.28.58,13.91.08,1.52-.86,1.38-1.82,1.48-1.18.14-1.43-.36-1.49-1.47-.31-5.3-.34-5.22-5.44-4.73-1.5.15-2,.53-1.71,2.06a20.46,20.46,0,0,1,.23,3.14c.07,1.3-.87,1.25-1.76,1.36s-1.39-.16-1.41-1.22c0-2.45-.21-4.9-.32-7.35Z"/><path class="cls-9" d="M51,215c-2.28,0-4.56-.07-6.83,0-1.25.05-1.67-.33-1.65-1.61s.28-1.64,1.59-1.7c5.19-.23,5.13-.28,4.89-5.43-.06-1.32-.51-1.65-1.7-1.57s-2.1,0-3.15,0c-1.3.1-1.61-.48-1.63-1.69s.73-1.32,1.67-1.31c4.55,0,9.11,0,13.66,0,1,0,1.62.2,1.58,1.44s-.34,1.63-1.5,1.56a25.09,25.09,0,0,1-2.88,0c-2.77-.48-3.39.75-3.24,3.31.25,4.4-.47,3.66,3.81,3.74.62,0,1.23,0,1.84,0,1.15-.06,2,0,2,1.59s-.63,1.72-1.88,1.68C55.39,215,53.2,215,51,215Z"/><path class="cls-8" d="M377.53,228.1c-1.66,0-3.34.11-5,0-3.77-.28-5.7-2.5-5.78-6.44-.08-4.17,1.51-6.35,5.36-6.67,3.39-.29,6.83-.14,10.24-.24,1.22,0,1.46.55,1.46,1.6s-.23,1.64-1.45,1.62c-3-.06-6-.07-8.95,0-2.77.06-3.68,1.06-3.7,3.61s1.35,3.44,3.64,3.45c2.89,0,5.78,0,8.68,0,1.08,0,1.8,0,1.81,1.48s-.53,1.81-1.85,1.73c-1.48-.1-3,0-4.47,0Z"/><path class="cls-5" d="M294.31,66.34c-4.8,0-7.36-2.58-7.08-7.34.18-3,.64-6.09.91-9.13.08-1,.37-1.46,1.44-1.24s1.94.2,1.74,1.67c-.36,2.68-.71,5.38-.9,8.08-.12,1.61-.4,3.39,1.48,4.4,2.62,1.4,5,.41,5.48-2.52s.69-5.9,1-8.86c.11-1.25.47-1.9,1.92-1.73s1.38.91,1.24,2c-.44,3.29-.64,6.62-1.21,9.88C299.75,64.65,297.42,66.35,294.31,66.34Z"/><path class="cls-2" d="M132.83,385.5c-.65,2.9-1.48,6.56-2.29,10.23-.25,1.13-.94,1-1.79.79s-1.64-.45-1.32-1.71c.75-3,1.47-5.95,2.07-9,.57-2.84-.73-4.29-3.6-4.46-1.93-.11-2.7,1.06-3.1,2.57-.77,2.88-1.5,5.77-2.07,8.69-.25,1.3-.61,1.79-2,1.51s-1.42-1-1.16-2.07c.74-3.06,1.32-6.17,2.22-9.18,1.08-3.59,3.68-5.07,7.26-4.44C131,379.18,132.87,381.2,132.83,385.5Z"/><path class="cls-5" d="M129,64.65c0,4.24-1.45,5.84-5.23,6.75s-5.92,0-7.29-2.9c-1.65-3.53-1.81-7.48-3-11.16-.43-1.37.88-1,1.45-1.28,1-.51,1.58,0,1.81,1.08.61,2.82,1.23,5.65,2,8.45.43,1.69,1.19,3.11,3.34,3.06,2.77-.05,4.15-1.45,3.67-4.17-.52-2.93-1.23-5.83-1.95-8.72-.32-1.27-.15-1.8,1.3-2.13s1.66.37,1.85,1.38C127.56,58.54,128.77,62,129,64.65Z"/><path class="cls-5" d="M311.8,377.51c0-3,1.83-5.08,5-6.11s5.38-.52,7,1.85c2.06,3.05,3.27,6.55,4.9,9.84.79,1.6-.66,1.62-1.44,2.14-1.19.79-1.24-.34-1.52-.93-1.29-2.68-2.53-5.38-3.82-8.05-1-2.05-2.47-2.86-4.68-1.81s-2.71,2.55-1.69,4.71c1.26,2.68,2.37,5.44,3.73,8.08.7,1.36.1,1.74-1,2.31s-1.51.22-1.94-.77c-1.25-2.88-2.6-5.72-3.84-8.61A6,6,0,0,1,311.8,377.51Z"/><path class="cls-3" d="M49.53,236.19a50.59,50.59,0,0,1,5.51,0c3.31.35,5.19,2.75,5.28,6.42.08,3.86-1.48,6-4.9,6.66s-7,.23-10.49.5c-1.12.08-1.57-.32-1.54-1.48s.06-1.84,1.5-1.83c3,0,6-.12,8.94-.17,2.38,0,3.52-1.24,3.48-3.6s-1-3.36-3.65-3.37-5.43.11-8.15.18c-1.28,0-2.35.13-2.4-1.8s1.16-1.53,2.21-1.55c1.4,0,2.81,0,4.21,0Z"/><path class="cls-5" d="M368.2,275.62l-1.14-.07c-.13-2.74.81-4.5,3.68-5.53,2.24-.8.34-3.09.68-4.67.25-1.17-.55-1.57-1.6-1.93-1.46-.52-3.76-.1-3.57-2.87.08-1.09.25-1.4,1.35-1.06,4.84,1.51,9.69,3,14.56,4.43a1.75,1.75,0,0,1,1.41,1.87A2,2,0,0,1,382.3,268q-6.15,3-12.21,6.09C369.4,274.48,368.33,274.5,368.2,275.62Zm11-9.45c-1.38-.42-2.18-.72-3-.9-.62-.14-1.51-.81-1.83-.06a3.25,3.25,0,0,0,.15,2.48c.56,1.09,1.3-.07,1.93-.22A15.87,15.87,0,0,0,379.16,266.17Z"/><path class="cls-2" d="M271.07,392.28c0,4.05-1.57,6.59-4.93,7.82-3.07,1.13-6.4.48-8.16-1.78-.57-.74-2.1-1.67-.83-2.73,1-.85,2.45-1.22,3.32.73.65,1.47,2.18,1.64,3.65,1.38a3.93,3.93,0,0,0,3.39-2.89,9.26,9.26,0,0,0-.32-5.92,3.93,3.93,0,0,0-4-2.71,3.38,3.38,0,0,0-3.67,2.75c-.34,1.79-1.35,1.74-2.58,1.41-1.74-.46-.79-1.67-.5-2.51,1-2.88,3.21-4.22,6.16-4.5s5.52.69,7.12,3.41A10.92,10.92,0,0,1,271.07,392.28Z"/><path class="cls-7" d="M246.14,47c1.34.13,2.91.2,4.46.44a4.58,4.58,0,0,1,4.13,4.88c0,2.79-1.56,5.17-4.23,5-4.22-.23-6.78.56-6,5.5.21,1.29-.87,1-1.6,1-1,.09-1.45-.22-1.42-1.29.12-4.81.22-9.61.27-14.42,0-.93.35-1.22,1.24-1.17S244.94,47,246.14,47Zm1.49,3.15c-1.2.09-3-.88-2.77,1.67.12,1.35-.58,3.24,2,2.82,1.78-.29,4.51.88,4.63-2.27C251.58,49.67,249.31,50.19,247.63,50.1Z"/><path class="cls-2" d="M94.26,366.39l0,.12-.58.79.06-.05c-4.93,1.28-9.24,4-13.94,5.84-.76.29-1.49,1.36-2.43.07-.7-1-1.3-1.63-.69-3,1.8-4,3.4-8,5-12.08a6.74,6.74,0,0,0,.94-3l-.06.06c3,1.52,3.37,2,1.79,4.89-1.46,2.66.9,3.42,1.92,4.91s2.15,1.08,3.31.29C91.64,363.94,93.19,364.14,94.26,366.39Zm-11.94-1.47c-.72,1.6-1.3,2.88-2.14,4.77L85,367.47Z"/><path class="cls-3" d="M49,295.68c-1.95.63-2.95-.29-2.81-2.91.1-1.82-.32-3.66-.3-5.49a4.62,4.62,0,0,1,4.51-4.85,5,5,0,0,1,5.51,3.78,17.55,17.55,0,0,1,.48,3.89c0,1.38.5,1.91,1.92,1.61.93-.2,1.93-.11,2.87-.27,1.38-.24,1.85.33,1.94,1.67s-.75,1.42-1.79,1.5C57.42,294.9,53.5,295.28,49,295.68Zm0-6c-.08,1.41-.37,3.29,2.81,2.77,2.93-.48,1.61-2.29,1.55-3.69s-.27-3.18-2.35-3.07S48.77,287.46,49,289.64Z"/><path class="cls-3" d="M360.13,83.79a9,9,0,0,1-.59,2.18c-.3.59-.32,2.13-1.58,1.24-.7-.48-2.46-.69-1.36-2.43s.36-3.32-1.07-4.63a3.92,3.92,0,0,0-4.85-.58,9,9,0,0,0-4.11,3.92,3.78,3.78,0,0,0,.5,4.4c1.07,1.28,2.52,2.19,4.15,1.41,1.8-.85,2.47.07,2.79,1.44.42,1.85-1.31,1.5-2.19,1.67a7.44,7.44,0,0,1-8.1-10.2,9.94,9.94,0,0,1,7.94-6.14c3.09-.47,5.39,1,7.18,3.43A7.33,7.33,0,0,1,360.13,83.79Z"/><path class="cls-7" d="M359.6,356.12a5.29,5.29,0,0,1-5-7c.07-.25.26-.46.32-.71.37-1.6,2.48-2.91,1.8-4.33-.55-1.14-2.56-1.63-4-2.31-1.08-.52-1.12-1.11-.51-2.05s.79-1.65,2.12-.88c4.08,2.36,8.24,4.58,12.36,6.88.47.27,1.23.44.72,1.33-1.54,2.63-2.62,5.55-4.82,7.76A4,4,0,0,1,359.6,356.12Zm3.86-8.2c-.68-1.1-2.46-2.14-3.22-1.89-1.86.59-2.44,2.76-2.83,4.53-.3,1.37.93,2.21,2.26,2.33C360.7,353,363.45,349.41,363.46,347.92Z"/><path class="cls-3" d="M82.15,94.53c-1.41,2.37-2.67,2-4.37.21-2.61-2.83-5.43-5.49-8.3-8-1.41-1.26-1.35-2,0-3.22s2.76-3,4.28-4.26c2.35-2,4.68-1.93,6.81.09,2.28,2.17,2.46,4.45.55,7l-.33.41c-3,3.66-3,3.66.52,6.91C81.64,93.91,81.91,94.26,82.15,94.53ZM77.07,81c-.95,0-4.47,3.16-4.48,3.89,0,.48,2.62,3,3.06,3,.8-.1,3.65-3.79,3.52-4.66A2.57,2.57,0,0,0,77.07,81Z"/><path class="cls-7" d="M383.09,173.91c0,1.05,0,2.1,0,3.15-.11,3-1.76,4.72-4.68,4.91a4.88,4.88,0,0,1-5.43-4.22c-.36-1.7.46-3.89-.82-5s-3.19-.05-4.83,0c-1,0-1.29-.36-1.18-1.18s-.58-1.85,1-1.94c4.89-.28,9.78-.62,14.66-.95,1-.06,1.15.51,1.13,1.32,0,1.31,0,2.62,0,3.94Zm-2.81,1.36c-.46-1.41.83-3.67-2.49-3.34-2.76.27-2.25,1.72-2.14,3.32s.06,3.61,2.53,3.47C380.44,178.59,380.32,176.82,380.28,175.27Z"/><path class="cls-7" d="M178.49,391.68c0,2.27,0,4.54,0,6.81,0,1.11-.36,1.6-1.53,1.49-2.52-.24-5.07-.26-7.57-.63a4.51,4.51,0,0,1-3.84-4.86c.08-2.84,1.68-4.73,4.31-5.09l.78-.07c1.65-.1,3.65.75,4.83-.24s.42-3,.49-4.51.9-1.38,1.92-1.43c1.42-.06,1.23.85,1.23,1.73,0,2.27,0,4.54,0,6.81Zm-5.36,5.14c1.26.24,2.25.17,2.41-2.12.19-2.74-1.4-2.48-3-2.58s-3.68.08-3.68,2.3C168.82,396.89,171,396.71,173.13,396.82Z"/><path class="cls-3" d="M51.73,184.56c-6.71-.11-10-3.76-9.16-9.55a5.84,5.84,0,0,1,3.92-4.84c.61-.24,1.6-1.08,1.87.2.18.81,1.14,2-.53,2.64-2.14.78-2.87,2.45-2.5,4.61s2.05,3.2,4.05,3.56a12.46,12.46,0,0,0,3.66.08,4.12,4.12,0,0,0,3.73-3.53,3.54,3.54,0,0,0-2.2-4.31c-1.85-.68-1.28-1.7-.81-2.79.67-1.58,1.66-.4,2.34-.06,2.94,1.5,3.95,3.92,3.41,7.79a6.8,6.8,0,0,1-5.48,6A18.73,18.73,0,0,1,51.73,184.56Z"/><path class="cls-7" d="M176.5,64.27a1.56,1.56,0,0,0,0,.43c-2.26.94-3.67.13-4.16-2.18-.56-2.7-2.6-1.88-4.32-2s-2.86.37-3.08,2.27c-.26,2.27-1.51,3.17-4.1,2.47,1.86-5.33,3.73-10.63,5.55-16,.32-1,1-.74,1.67-.8a1.74,1.74,0,0,1,2.07,1.11C172.19,54.53,174.36,59.39,176.5,64.27Zm-9.95-6.59c3.88.18,3.88.18,2.55-3-.23-.53-.5-1-.91-1.88C167.6,54.58,167.11,56,166.55,57.68Z"/><path class="cls-5" d="M377.68,316.82c-.23,1.24-.33,2.33-2.26,1.81-4.29-1.15-8.66-2.05-13-3-1.08-.24-1.79-.46-1.31-1.86.35-1,.51-1.67,1.88-1.33,4.41,1.1,8.85,2,13.28,3.06C377,315.66,378,315.54,377.68,316.82Z"/><path class="cls-6" d="M213.55,55.17c0-2.18.07-4.38,0-6.56-.06-1.1.12-1.62,1.35-1.61s1.77.15,1.78,1.54c0,4.55.18,9.1.33,13.65,0,1.17-.22,1.75-1.56,1.77s-1.62-.49-1.58-1.69c.07-2.36,0-4.73,0-7.1Z"/><path class="cls-5" d="M51,323.16c-.41-1.11.4-1.13,1.09-1.29,4.53-1,9.07-2,13.58-3.11,1.35-.32,1.55.3,1.89,1.39.45,1.42-.53,1.44-1.29,1.63-4.43,1.08-8.88,2.06-13.29,3.19C51.14,325.44,51.12,324.31,51,323.16Z"/><path class="cls-6" d="M125.59,395.82c-1.38,2.81-3.1,4.25-6.23,2.1C121.44,397.07,122.48,393.9,125.59,395.82Z"/><path class="cls-6" d="M383.74,219.66c4.22,1.19,4.22,1.19,3.84,5.41C385.85,223.43,382.9,223,383.74,219.66Z"/><path class="cls-6" d="M122.63,50.43c-1.4,2.08-1.26,4.9-4.4,4.89C117.9,51.26,118.15,51,122.63,50.43Z"/><path class="cls-10" d="M216.09,113.89c17.24-.57,34.23-1.16,51.21-1.71,17.46-.56,34.92-.55,52.39-.53,5.29,0,5.29,0,5.68,5.18.47,6.21.87,12.42,1.44,18.62.15,1.7-.22,2-1.94,2-22.1-.77-44.18,0-66.27,1-2.1.1-2.61.84-2.5,2.81q.42,8.15.51,16.3c0,1.62.75,1.84,2.06,1.93,6.49.44,13,0,19.45-.22,14.55-.5,29.08-1.5,43.64-1.79,2.07,0,2.36.5,2.28,2.4-.3,7.27-.45,14.55-.53,21.83,0,1.61-.42,2-2.05,2.08-11.13.27-22.26.63-33.39,1-9.64.34-19.26,1-28.87,1.85-2,.18-2.73.83-2.68,2.86.14,5,0,10,.41,15,.15,1.79.79,2.11,2.38,2.07,19.81-.56,39.63-1,59.44-1.59,3.61-.1,3.55-.12,3.39,3.49-.31,7-.62,14-.72,21,0,2.06-.73,2.71-2.66,2.73-10.35.08-20.71.25-31.06.32-2.44,0-3.45.71-3.9,3.45-3.25,19.58-7.95,38.79-16.09,57a57.29,57.29,0,0,1-9,14.75,18.81,18.81,0,0,1-8.7,6.12c-4.42,1.33-7.91-.28-10.74-3.63-3.16-3.75-5-8.22-6.48-12.81-3.7-11.32-5.42-23-6.73-34.79-1.35-12.12-2.45-24.26-3.55-36.4-.16-1.7-.71-2.2-2.38-2.14q-19.46.63-38.92,1.13c-8.25.23-16.49.15-24.74,0-1.61,0-1.62-.77-1.59-1.93a180.82,180.82,0,0,1,1.8-18.58c.39-3,1-5.89,1.28-8.85.15-1.63.74-1.77,2.15-1.56a137.35,137.35,0,0,0,33,.41c10.45-1,18.62-5.87,25.67-13,8.56-8.69,14.17-19,15.05-31.34,1-13.66-4.87-24.44-14.81-33.33-.91-.82-1.84-1.62-2.75-2.44A3.47,3.47,0,0,1,216.09,113.89Z"/><path class="cls-11" d="M181.26,296.16c6.85,13.44,16.21,24.76,25.8,36.24-3.88.91-7.7.69-11.46.86A861.23,861.23,0,0,1,108,333c-1.83-.11-2.38-.61-2.19-2.48,2.59-25.42,2.86-50.93,3.31-76.44.15-8.42.66-16.82.9-25.23,0-1.6.42-2.24,2.14-2.47,12.67-1.72,25.37-1.4,38.06-.65,8.14.48,16.34.79,24.32,2.45,11.78,2.44,22.34,7.33,29.66,17.44,10.46,14.45,7.57,42-16.91,49.62A34.23,34.23,0,0,1,181.26,296.16Zm-3.65-36.42c0-7-6.33-12.36-14.58-12.33-8.53,0-16,6.81-16.06,14.55-.05,7.55,7.62,14.54,16.09,14.59C172.39,276.6,176.9,268.45,177.61,259.74Z"/><path class="cls-10" d="M210.14,334.85c18.29,7.13,37.06,7.58,55.73,3.74,18.86-3.88,31.35-16.24,39.26-33.5,5.49-12,8.53-24.65,10.89-37.5,2-10.6,3.63-21.25,5.34-31.9.31-1.9.74-2.68,3-2.6,8.58.29,17.18.26,25.77.24,2.39,0,3.47.51,3.59,3.28,1.12,25.49.55,50.82-6,75.71-3.75,14.21-11.7,25.74-22.09,35.76a41.12,41.12,0,0,1-14.24,8.75,163,163,0,0,1-40.09,9.3,440.36,440.36,0,0,1-48,3,120.29,120.29,0,0,1-14.44-.72c-1.07-.13-1.56-.26-1.39-1.51,1.34-9.92,1.31-19.94,2.25-29.89A19.73,19.73,0,0,1,210.14,334.85Z"/><path class="cls-10" d="M212.58,110.41c-16.3-5.91-33.26-4.46-50.21-3.1A122.36,122.36,0,0,0,147,109.48c-17.15,3.58-27.25,14.39-31.07,31.11-3,13-3.17,26.44-3.82,39.76-.7,14.36-1.17,28.74-2.44,43.07-.16,1.75-.65,2.43-2.45,2.44-9,0-18.08.14-27.12.22H78.79c-5.05.07-5.06.07-5.5-5.16-1.79-21-.16-41.88,3.35-62.62A219.48,219.48,0,0,1,87,119c6.47-17.56,18.9-28.12,36.68-33.06,13.67-3.8,27.61-5.86,41.66-7.25,14.85-1.47,29.76-1.93,44.66-2.27,2.11-.05,2.76.66,2.72,2.59q-.15,6.18-.17,12.36C212.56,97.75,212.58,104.14,212.58,110.41Z"/><path class="cls-12" d="M173.16,166.12c-7.3.08-13.74-5.94-13.46-13.28.36-9.44,5-14.29,14.08-14.61,7.88-.27,14.32,5.48,14.39,12.33C188.25,158.14,180.63,166.05,173.16,166.12Z"/><path class="cls-3" d="M93.73,367.3l.58-.79C94.34,366.94,94.58,367.53,93.73,367.3Z"/><path class="cls-9" d="M177.61,259.74c-.71,8.71-5.22,16.86-14.55,16.81-8.47-.05-16.14-7-16.09-14.59.05-7.74,7.53-14.51,16.06-14.55C171.28,247.38,177.62,252.73,177.61,259.74Z"/></svg>