<svg id="Capa_2" data-name="Capa 2" xmlns="http://www.w3.org/2000/svg" viewBox="0 0 429.77 448.41"><defs><style>.cls-1{fill:#1f23a9;}</style></defs><title>Mesa de trabajo 4</title><path class="cls-1" d="M327.51,404.66c-4.14-1.89-8.73-2.07-13-3.71-19.13-7.37-29.37-21.5-31.91-41.48-2.08-16.44.78-31.78,11.87-44.64a46.07,46.07,0,0,1,30.93-16l21.62-.11c19.3.88,38.44,17.89,42.3,37.37,2.91,14.71,2.3,29-4.72,42.52a44.71,44.71,0,0,1-24,21.44c-5.16,2-10.7,3.13-16.07,4.65h-3.09a13.94,13.94,0,0,0-10.05,0Zm9-82c-9.06,9.07-17.84,17.93-26.71,26.7-1.28,1.27-1.4,2,0,3.3q12.51,12.31,24.83,24.83c1.46,1.48,2.32,1.78,3.92.14,8.19-8.36,16.49-16.62,24.79-24.87,1.07-1.06,1.54-1.72.21-3C354.46,340.8,345.53,331.77,336.49,322.68Z"/><path class="cls-1" d="M72.45,112.4c-1.23,1,0,1.84.37,2.6,3.82,7.9,7.71,15.76,11.58,23.63.43.89.83,1.79,1.5,3.24H32.25v-.77c6.81-9,12.49-18.68,18.64-28.08q22-33.66,43.86-67.41c.34-.53.75-1,1.29-1.74l63.46,97.75H106.1c4.76-9.8,9.43-19.41,14.11-29-.73-1.35-2-.84-3.09-.85q-20.9,0-41.8,0C74.32,111.73,73.25,111.5,72.45,112.4Z"/><path class="cls-1" d="M331.37,404.66a13.94,13.94,0,0,1,10.05,0Z"/><path class="cls-1" d="M191.55,369.19c3.91,8.18,9,15.71,13.29,23.66.72,1.34,1.42,2.7,2.13,4-1,1.23-2.36.79-3.59.79q-25.23,0-50.45,0c8.07-14.11,16-28.29,24.3-42.27,1.9-3.22,1.84-5.47,0-8.64-7.8-13.22-15.29-26.62-22.89-40,.14-1.78,1.39-1.86,2.76-1.85l50,.14c-5.11,9.1-10.21,18.21-15.48,27.59H234.5l-15.18-27A5.08,5.08,0,0,1,221,305q24.16-.06,48.35-.05c1.22,0,2.36,0,2.52,1.64-7.67,13.42-15.23,26.91-23.1,40.22-1.86,3.14-1.9,5.37,0,8.54,7.88,13.29,15.43,26.77,23.1,40.18.13,2.77-1.93,2.16-3.47,2.17q-22.83,0-45.67,0c-1.24,0-2.6.37-3.56-.87q6.78-12,13.53-23.93c.69-1.21,1.3-2.46,2-3.69-.51-1-1.47-.86-2.35-.86H193.91C193,368.34,192.08,368.2,191.55,369.19Z"/><path class="cls-1" d="M80.49,400.88c-13.83-1.47-24.41-8.6-32.75-19.28a42.78,42.78,0,0,1-9.29-21.89q0-8.43,0-16.88c2.59-17,12-29.08,26.94-37a48.62,48.62,0,0,1,29.43-5.08c5.72.71,11.5.92,17.25,1.36,3.36,2.48,7.17.78,10.76,1.18,2.85.26,5.77-.43,8.57.63q-.13,18.27-.25,36.55c-10.57-2.18-20.84-5.47-31.27-8.15q-10.91-2.79-21.79-5.61c-1.28.54-1,1.69-1,2.66q0,22.2,0,44.39c0,.43-.7,1.69.83,1.24,6.84-.57,13.29-2.82,19.85-4.6,10.73-2.9,21.36-6.14,32.25-8.44,1.6.88,1.13,2.43,1.13,3.77,0,8.31-.1,16.63.07,24.94.07,3.69.41,7.2-4.51,7.89A282.31,282.31,0,0,1,98,400.83Z"/><path class="cls-1" d="M77.93,246.75c.65.67,1.31,1.21,2.35.82,14.41-5.39,29.36-8.84,44.32-12.21,1.71-.39,3-2,5-1.55,2.36.46,1.56,2.36,1.57,3.73.06,9.14-.07,18.28.09,27.41.05,3.07-.32,5.1-4.07,4.49-.87-.14-1.87-.1-2,1.18-8.58.59-17.11,1.8-25.72,1.88h-20c-16.37-2.61-28.08-11.77-36-26a35.74,35.74,0,0,1-5-15.17q0-8.42,0-16.82c2.07-14.72,9.83-25.84,21.9-34.06,9-6.16,19.43-9.81,30.06-8.08,8,1.3,16.13-.25,24.08,2.29,4.18,1.34,9.11.32,13.7.48,1.21,0,2.59-.45,3.62.68-1,1.25-.55,2.71-.56,4.08-.05,10.75-.05,21.5-.07,32.26-12.43-2.64-24.55-6.47-36.86-9.59q-8.13-2.06-16.25-4.14c-1.28.55-.94,1.7-.94,2.67q0,22.17,0,44.35C77.12,245.91,76.42,247.15,77.93,246.75Z"/><path class="cls-1" d="M325.89,176.64c-3.46,13.2-6.87,26.41-10.4,39.58-1.32,4.9-2.15,9.95-4.19,14.64-1.81,3.1.38,3,2.41,3h45c1,0,2.09.3,2.79-.78-.66-7-3.29-13.59-5-20.37-2.85-11.49-5.93-22.92-8.91-34.37.42-2.36,2.3-1.63,3.69-1.64,11.2,0,22.4.11,33.59-.11,3.48-.07,5.06.89,4.62,4.44-.84,6.29-2.17,12.55-2.9,18.79-.91,7.84-2.47,15.57-3.31,23.41-1.33,12.33-3.37,24.42-12,34.19-7.26,8.24-16.05,13.79-27.14,15.22l-15.81-.09C311,269.43,299.68,259.15,293.59,243c-3.31-8.77-3.6-18.22-5-27.4-2.05-13-3.85-26-5.76-39Z"/><path class="cls-1" d="M201.53,48.33c3.95,11.16,6.53,22.72,10,34,1.13,3.62,2.13,7.29,3.41,11.75L227.26,51.4c1.49-3.89,4.85-3,7.83-3q17.11,0,34.23,0c1.36,0,2.84-.49,4,.63q-14,21.82-28.06,43.63c-3,4.71-6.06,9.41-9.16,14.06-.88,1.31-.71,2.7-.71,4.08,0,9.13-.16,18.27.06,27.4.08,3.15-1,3.79-3.9,3.74-11.06-.16-22.12-.22-33.18,0-3.41.08-3.95-1.08-3.88-4.12.2-8.74,0-17.49.13-26.24a11.46,11.46,0,0,0-2-6.79q-17-25.91-33.76-51.89c-.55-.85-1-1.78-1.47-2.67.31-2.62,2.37-1.85,3.86-1.86C174.68,48.32,188.1,48.34,201.53,48.33Z"/><path class="cls-1" d="M310.52,112.41c-1.23,1.65.29,2.83.87,4,3.95,8.14,8.05,16.22,12.08,24.32.1.19,0,.48-.05.92h-53L334,43.74c21.21,32.68,42.23,65.05,63.54,97.86H344.13l14.19-29c-.75-1.31-2-.86-3.1-.86q-20.93,0-41.83,0C312.39,111.73,311.31,111.49,310.52,112.41Z"/><path class="cls-1" d="M389.47,181c.44-3.55-1.14-4.51-4.62-4.44-11.19.22-22.39.06-33.59.11-1.39,0-3.27-.72-3.69,1.64-1.45-2.05-.92-2.91,1.59-2.91,13,0,26-.2,38.94.14C392.54,175.66,389.64,179,389.47,181Z"/><path class="cls-1" d="M325.89,176.64l-43.11,0c0-1.82,1.42-1.16,2.25-1.16q19.31-.06,38.61,0C324.45,175.52,325.89,174.8,325.89,176.64Z"/><path class="cls-1" d="M219.17,396.82c1,1.24,2.32.87,3.56.87q22.83,0,45.67,0c1.54,0,3.6.6,3.47-2.17.76.69,1.64,1.56,1.24,2.53s-1.6.41-2.43.41q-24.78,0-49.55-.05C220.47,398.41,217.77,399.8,219.17,396.82Z"/><path class="cls-1" d="M207,305.09l-50-.14c-1.37,0-2.62.07-2.76,1.85-.77-1.2-3.28-2.86.69-2.86q25.45,0,50.92,0c.56,0,1.32-.28,1.57.6,0,.07-.08.2-.15.28S207.13,305,207,305.09Z"/><path class="cls-1" d="M271.89,306.59c-.16-1.6-1.3-1.64-2.52-1.64q-24.18,0-48.35.05a5.08,5.08,0,0,0-1.7.69c-.51-.44-1-1.12-.38-1.55a4.62,4.62,0,0,1,2.26-.19c16.46,0,32.91,0,49.37,0C273.15,303.9,274.12,304.37,271.89,306.59Z"/><path class="cls-1" d="M152.93,397.67q25.23,0,50.45,0c1.23,0,2.61.44,3.59-.79.67.39,1,1.19.28,1.44a9.4,9.4,0,0,1-3.06.14c-15.84,0-31.68,0-47.52-.05C155.45,398.43,153.86,399.37,152.93,397.67Z"/><path class="cls-1" d="M361.45,233.05c-.7,1.08-1.8.78-2.79.78h-45c-2,0-4.22.12-2.41-3-.37,2.94,1.81,2.11,3.26,2.12Q338,233.06,361.45,233.05Z"/><path class="cls-1" d="M273.36,49c-1.2-1.12-2.68-.63-4-.63q-17.11-.06-34.23,0c-3,0-6.34-.84-7.83,3,.1-3.53,2.09-4.15,5.28-4.1,13,.17,25.93,0,38.9.14C272,47.45,274.84,46,273.36,49Z"/><path class="cls-1" d="M77.93,246.75c-1.51.4-.81-.84-.81-1.27q-.06-22.17,0-44.35c0-1-.34-2.12.94-2.67Q78,222.61,77.93,246.75Z"/><path class="cls-1" d="M77.94,375c-1.53.45-.82-.81-.83-1.24q-.06-22.18,0-44.39c0-1-.33-2.12,1-2.66Q78,350.9,77.94,375Z"/><path class="cls-1" d="M201.53,48.33c-13.43,0-26.85,0-40.28,0-1.49,0-3.55-.76-3.86,1.86-.69-.57-1.47-1.23-1.34-2.15s1.2-.7,1.88-.7q20.91,0,41.83,0C200.49,47.38,201.35,47.25,201.53,48.33Z"/><path class="cls-1" d="M72.45,112.4c.8-.9,1.87-.67,2.87-.67q20.91,0,41.8,0c1.07,0,2.36-.5,3.09.85Z"/><path class="cls-1" d="M310.52,112.41c.79-.92,1.87-.68,2.87-.68q20.91,0,41.83,0c1.07,0,2.35-.45,3.1.86Z"/><path class="cls-1" d="M125.16,270.62c.15-1.28,1.15-1.32,2-1.18,3.75.61,4.12-1.42,4.07-4.49-.16-9.13,0-18.27-.09-27.41,0-1.37.79-3.27-1.57-3.73,1.25-.94,2.42-1.41,2.43.86,0,11.31,0,22.63,0,33.94,0,1.48-.77,1.61-1.93,1.64C128.47,270.29,126.81,270.49,125.16,270.62Z"/><path class="cls-1" d="M191.55,369.19c.53-1,1.48-.85,2.36-.85H232.3c.88,0,1.84-.16,2.35.86Z"/><path class="cls-1" d="M126.73,398.6c4.92-.69,4.58-4.2,4.51-7.89-.17-8.31,0-16.63-.07-24.94,0-1.34.47-2.89-1.13-3.77,2-1.46,2,.05,2,1.43q0,16.31,0,32.62C132.05,400.66,128.48,397.71,126.73,398.6Z"/><path class="cls-1" d="M131.11,340.51q.12-18.28.25-36.55c.22.42.64.84.64,1.27q.06,17.17,0,34.35a2.82,2.82,0,0,1-.35,1.06A4.1,4.1,0,0,1,131.11,340.51Z"/><path class="cls-1" d="M131.14,212.19c0-10.76,0-21.51.07-32.26,0-1.37-.43-2.83.56-4.08q.12,17.68.25,35.37C132,211.79,131.78,212.17,131.14,212.19Z"/><path class="cls-1" d="M347,298.68l-21.62.11A53.55,53.55,0,0,1,347,298.68Z"/><path class="cls-1" d="M79.45,272.51h20C92.78,273.66,86.11,274.07,79.45,272.51Z"/><path class="cls-1" d="M38.41,214.54q0,8.4,0,16.82A35.56,35.56,0,0,1,38.41,214.54Z"/><path class="cls-1" d="M38.41,342.83q0,8.44,0,16.88A35.81,35.81,0,0,1,38.41,342.83Z"/><path class="cls-1" d="M80.49,400.88,98,400.83A43.29,43.29,0,0,1,80.49,400.88Z"/><path class="cls-1" d="M328.34,272.52l15.81.09A33.41,33.41,0,0,1,328.34,272.52Z"/><path class="cls-1" d="M122.79,303.33c-3.59-.4-7.4,1.3-10.76-1.18C115.56,303.12,119.33,301.79,122.79,303.33Z"/></svg>