<svg id="Capa_1" data-name="Capa 1" xmlns="http://www.w3.org/2000/svg" viewBox="0 0 24 24"><defs><style>.cls-1{fill:#351c0d;}.cls-2{fill:none;}</style></defs><title>Oceanos2</title><path class="cls-1" d="M22,21a3.83,3.83,0,0,1-2.18-.64A1.88,1.88,0,0,0,18.67,20a1.8,1.8,0,0,0-1.15.36,4,4,0,0,1-4.36,0A1.88,1.88,0,0,0,12,20a1.8,1.8,0,0,0-1.15.36A3.89,3.89,0,0,1,8.67,21a3.83,3.83,0,0,1-2.18-.64A1.82,1.82,0,0,0,5.34,20a1.82,1.82,0,0,0-1.15.36A3.89,3.89,0,0,1,2,21V19a1.8,1.8,0,0,0,1.15-.36A3.89,3.89,0,0,1,5.34,18a3.83,3.83,0,0,1,2.18.64A1.8,1.8,0,0,0,8.67,19a1.8,1.8,0,0,0,1.15-.36A3.89,3.89,0,0,1,12,18a3.83,3.83,0,0,1,2.18.64,1.88,1.88,0,0,0,1.15.36,1.82,1.82,0,0,0,1.15-.36,4,4,0,0,1,4.36,0A1.8,1.8,0,0,0,22,19Zm0-4.5a3.83,3.83,0,0,1-2.18-.64,1.88,1.88,0,0,0-1.15-.36,1.8,1.8,0,0,0-1.15.36,4,4,0,0,1-4.36,0A1.88,1.88,0,0,0,12,15.5a1.8,1.8,0,0,0-1.15.36,3.83,3.83,0,0,1-2.18.64,3.83,3.83,0,0,1-2.18-.64,1.88,1.88,0,0,0-1.15-.36,1.82,1.82,0,0,0-1.15.36A4,4,0,0,1,2,16.5v-2a1.8,1.8,0,0,0,1.15-.36,3.83,3.83,0,0,1,2.18-.64,3.83,3.83,0,0,1,2.18.64,1.88,1.88,0,0,0,1.15.36,1.8,1.8,0,0,0,1.15-.36A3.83,3.83,0,0,1,12,13.5a3.83,3.83,0,0,1,2.18.64,1.88,1.88,0,0,0,1.15.36,1.82,1.82,0,0,0,1.15-.36,4,4,0,0,1,4.36,0A1.88,1.88,0,0,0,22,14.5v2ZM8.67,12a1.8,1.8,0,0,0,1.15-.36A3.89,3.89,0,0,1,12,11a3.83,3.83,0,0,1,2.18.64,1.88,1.88,0,0,0,1.15.36,1.82,1.82,0,0,0,1.15-.36l.41-.23L10.48,5C8.93,3.45,7.5,3,5,3V5.5A4.92,4.92,0,0,1,9,7l1,1L6.75,11.25a5.47,5.47,0,0,1,.77.39A1.8,1.8,0,0,0,8.67,12Z"/><circle class="cls-1" cx="16.5" cy="5.5" r="2.5"/><path class="cls-2" d="M0,0H24V24H0Z"/></svg>