<svg id="Capa_2" data-name="Capa 2" xmlns="http://www.w3.org/2000/svg" viewBox="0 0 429.77 448.41"><defs><style>.cls-1{fill:#029933;}</style></defs><title>Mesa de trabajo 3</title><path class="cls-1" d="M214.89,43.64a180.57,180.57,0,1,0,0,361.13c99.72,0,180.56-80.85,180.56-180.57A180.56,180.56,0,0,0,214.89,43.64Zm0,339.45A158.89,158.89,0,1,1,373.77,224.2,158.89,158.89,0,0,1,214.89,383.09Z"/><path class="cls-1" d="M286.68,289.36c-.17-7.51-4.3-12.93-7.33-18.72-10.38-19.85-21-39.6-31.52-59.36-.53-1-.77-1.49.55-2.11q16.61-7.81,33.11-15.81c1.5-.73,2.08-.37,2.79,1,7.14,13.61,14.36,27.17,21.51,40.78,3.19,6.08,3.51,12.18.13,18.42-6,11.1-11.88,22.3-17.82,33.46C287.76,287.65,287.35,288.25,286.68,289.36Z"/><path class="cls-1" d="M114.5,206.41c4,0,8,.07,12,0,11.49-.25,23-.56,34.47-.86,1,0,1.78-.07,2.43,1,8,13.11,16.1,26.18,24.32,39.52-2-.41-3.39-1.47-4.92-2.22-3.86-1.9-7.7-3.86-11.48-5.92-1.39-.76-2.26-.61-3,.77-2.32,4.41-4.68,8.81-7,13.25a8.5,8.5,0,0,0-.91,5.58c.19,1-.11,1.33-1.14,1.32-8.63-.09-17.26.1-25.87-.25-10.75-.43-16.8-10.22-12.6-20.17,2.28-5.41,5.31-10.47,8.1-15.65.74-1.38,1.38-2.84,2.25-4.14,1.06-1.58.54-2.41-1-3.18-5-2.54-10-5.15-14.93-7.74-.3-.15-.58-.34-.87-.51Z"/><path class="cls-1" d="M231.82,133.69c-4.54,3.52-7.19,8.53-10.32,13.15q-19.11,28.26-38.09,56.62c-.65,1-1,1.26-2.17.42q-14.78-11.2-29.67-22.24c-.88-.66-1.1-1-.41-2.06Q164,160.7,176.79,141.75a26,26,0,0,1,6.62-6.93,4.93,4.93,0,0,1,2.38-1.13c1-.22,2.32.74,2.81-.92h0c.48,0,.95.1,1.42.1l39.29,0C230.22,132.85,231.3,132.48,231.82,133.69Z"/><path class="cls-1" d="M231.82,133.69c-.52-1.21-1.6-.84-2.5-.84l-39.29,0c-.47,0-.94-.06-1.42-.1,1-.78,2.24-.56,3.36-.57q20.61-.07,41.23-.08c.12,0,.23.11.5.24A3.22,3.22,0,0,1,231.82,133.69Z"/><path class="cls-1" d="M188.6,132.77c-.49,1.66-1.85.7-2.81.92A4.73,4.73,0,0,1,188.6,132.77Z"/><path class="cls-1" d="M281,296.73l.35-.42C281.32,296.57,281.19,296.69,281,296.73Z"/><path class="cls-1" d="M263.69,302.91H249.32c-.77-1.6-2.13-.87-3.15-.59a1.89,1.89,0,0,0-1.44,2.22c.22,4.34.11,8.7.06,13.05,0,.8.57,2-.51,2.33s-.92-1.06-1.45-1.56c-.05-.06-.25,0-.38.08l-14.74-25.81c-1.86-3.27-3.65-6.58-5.6-9.79a2.63,2.63,0,0,1,0-3.14q10.67-17.87,21.24-35.79a16.07,16.07,0,0,1,2.47-3.48c0,6,0,12,0,18,0,1.15.15,2,1.43,2.31-.33,1.35.79.66,1.11.66,4.1.06,8.19,0,12.29,0,2.09,0,4.16.11,6.18-.81.95-.43,1.72-1.42,2.95-1.23q4.38,8.18,8.76,16.36c1.86,3.48,4,6.85,4.67,10.83a13.32,13.32,0,0,1-1.94,9.78l-.35.42h0c-.7-.1-1,.3-1.47.8a13.94,13.94,0,0,1-8.94,4.5,46.79,46.79,0,0,1-5.3.05C264.59,302.07,263.81,301.9,263.69,302.91Z"/><path class="cls-1" d="M269.81,259.34c-1.23-.19-2,.8-2.95,1.23-2,.92-4.09.8-6.18.81-4.1,0-8.19,0-12.29,0-.32,0-1.44.69-1.11-.66,4.58,0,9.16-.06,13.75,0,2.64,0,5.2-.17,7.38-1.9C269.23,258.09,269.64,258.44,269.81,259.34Z"/><path class="cls-1" d="M242.45,318.43c.13,0,.33-.14.38-.08.53.5.42,1.87,1.45,1.56s.5-1.53.51-2.33c.05-4.35.16-8.71-.06-13.05a1.89,1.89,0,0,1,1.44-2.22c1-.28,2.38-1,3.15.59-1.18.59-2.69-.45-3.74.77-.77,3.05-.35,6.13-.18,9.2l0,2.15a2,2,0,0,0,0,1.83c0,.39,0,.78,0,1.17,0,.05-.13.1-.13.14s.09.22.13.34c0,.39,0,.78,0,1.18a3.32,3.32,0,0,0,.1,2.9h0a.74.74,0,0,1-.8.39A24.11,24.11,0,0,1,242.45,318.43Z"/><path class="cls-1" d="M263.69,302.91c.12-1,.9-.84,1.56-.84a46.79,46.79,0,0,0,5.3-.05,13.94,13.94,0,0,0,8.94-4.5c.44-.5.77-.9,1.47-.8-3.23,4.92-8.09,6.24-13.58,6.16a2.21,2.21,0,0,0-2.89,0Z"/><path class="cls-1" d="M245.4,312.87c-.17-3.07-.59-6.15.18-9.2C245.39,306.73,245.84,309.81,245.4,312.87Z"/><path class="cls-1" d="M264.49,302.9a2.21,2.21,0,0,1,2.89,0Z"/><path class="cls-1" d="M245.6,322.58a3.32,3.32,0,0,1-.1-2.9A8.08,8.08,0,0,1,245.6,322.58Z"/><path class="cls-1" d="M244.8,323a.74.74,0,0,0,.8-.39c.23.37.34.84-.06,1S244.88,323.39,244.8,323Z"/><path class="cls-1" d="M245.45,316.85a2,2,0,0,1,0-1.83A2.51,2.51,0,0,1,245.45,316.85Z"/><path class="cls-1" d="M245.46,318.5c0-.12-.1-.22-.13-.34s.09-.09.13-.14Z"/><path class="cls-1" d="M249.31,141.87c-1.66-.14-3.6.51-4.52-1.65a3,3,0,0,1,.31-1.78c.62-.88,1.18-1.07,1.79.07a3.2,3.2,0,0,0,2.33,1.77c.44.08,1.06.19,1.09.74S249.48,141.38,249.31,141.87Z"/><path class="cls-1" d="M273.54,167.33c-.78-1.43-.35-2.51.91-3.42.49-.36.28-1,.32-1.51h0c.7.17,1.18-.42,2-.83a12.08,12.08,0,0,1-3.24,5.76Z"/><path class="cls-1" d="M273.54,167.33c-.05.88-.66,1.36-1.27,2-.6-2.23-.58-2.27,1.27-2Z"/><path class="cls-1" d="M226.05,185.57a.85.85,0,0,1,.59.73c0,.41-.16.67-.55.66s-.56-.31-.57-.69S225.61,185.61,226.05,185.57Z"/><path class="cls-1" d="M225.34,150.19c-.12.05-.26.16-.34.12s-.1-.21-.15-.33c.12,0,.26-.15.34-.12S225.29,150.08,225.34,150.19Z"/><path class="cls-1" d="M219.75,164.13a2.18,2.18,0,0,1,.05-2.57A2.51,2.51,0,0,1,219.75,164.13Z"/><path class="cls-1" d="M223,166.45a1.37,1.37,0,0,1-1.93.11C221.65,166,222.19,166,223,166.45Z"/><path class="cls-1" d="M227.55,166.65c-.13.19-.21.43-.34.46-.34.09-.44-.2-.4-.45a.51.51,0,0,1,.33-.35C227.26,166.31,227.39,166.51,227.55,166.65Z"/><path class="cls-1" d="M282.7,154.91q-4.57,7.25-9.15,14.5c-5.21,8.19-10.47,16.34-15.62,24.56a3.33,3.33,0,0,1-3.48,1.7c-14.82-.66-29.65-1.22-44.48-1.82a7.15,7.15,0,0,1-1-.28c3.69-2,7-3.81,10.33-5.64,2.09-1.14,4.17-2.31,6.25-3.48a1.5,1.5,0,0,0,.65-2.36c-2.29-4.28-4.48-8.61-6.78-12.88a9.84,9.84,0,0,0-4.64-4.48c-.85-.38-1-.75-.42-1.51,5-7.12,9.45-14.67,14.78-21.58,4.19-5.42,10.41-7.42,16-5.43,4.3,1.55,7.13,4.76,9.24,8.61q4.74,8.63,9.18,17.39c.8,1.59,1.57,1.75,3,1,5.26-2.89,10.55-5.7,15.83-8.55Zm-9.16,12.42a12.08,12.08,0,0,0,3.24-5.76c-.83.41-1.31,1-2,.83.11-1.52-.64-2.27-1.87-1.28a8.67,8.67,0,0,1-3.83,1.67c1.47.47,2.54.94,1.85,2.05-.58.95-1.56.36-2.09-.21a1.71,1.71,0,0,0-2.24-.09c-1.52.83-2.4,0-3.52-.74a3.66,3.66,0,0,1-1.5-2.52,11.18,11.18,0,0,0-1.86-4.47c-.57-.77-1.11-1.19-2-.83-1.45.57-1.22-.19-1-1.15.24-1.19,1.11-2.49-.36-3.52-.07-.5.16-1.3-.58-1.26-.43,0-.17.82-.24,1.26-.48.16-1,.69-1.47.1a.7.7,0,0,1,.08-.94c2-1.94-.06-3.44-.58-5.07-.31-1-.94-1.42-1.59-.14-.28.56-.7.85-1.32.59s-.44-.79-.45-1.24-.12-1.11.4-1.51c.37,0,1,.1,1-.32.07-.7-.61-.41-1-.5-.53.22-1.13.66-1.23-.41.17-.49,1-.27,1-.85s-.65-.66-1.09-.74a3.2,3.2,0,0,1-2.33-1.77c-.61-1.14-1.17-.95-1.79-.07a3,3,0,0,0-.31,1.78c-1.53-.19-1.61-1.53-1.49-2.47.16-1.2-.31-1.2-1.17-1.23-1.79-.07-3.46.64-5.2.77-1.19.09-1.9.39-2.2,1.61-.13.51-.41,1.45-1.18,1.06-2.45-1.23-3,.92-3.31,2.18s-.05,2.56-2.07,2.3c-.69-.1-.63.76-.62,1.28,0,1,0,1.86-1.33,2.05-.54.08-1,.73,0,1,.66.2,1.07.42.61,1.08s-.28,2-1.32,1.75c-2.66-.73-2.45.93-2.44,2.56h0c-1.18,1.05-3.32,1.31-3.23,3.42.05,1.16.29,2-1.37,2.1-.55,0-1.72,1.32-1.15,1.65,2.47,1.4.77,2.2-.34,3.19.52.36.87.69,1.52.56,1.46-.3,2,.56,1.6,1.75-.52,1.62.22,2.38,1.46,3.1a3.17,3.17,0,0,1,1.69,3.41c-.22,1.13.37,1.76.8,2.6,1.71,3.42,4.48,6.51,3.38,10.83-.15.59.55,1.51-.38,1.76a2.58,2.58,0,0,1-2.7-.31,2.5,2.5,0,0,0-3.5-.15c-1.47,1.29-3.29,1.78-4.85,2.78a3.55,3.55,0,0,0-.74.71c-.79.87,0,1.52.57,1.38,1.62-.43,3.11.22,4.63.33,3,.23,5.86-1.32,8.84-.14a17.82,17.82,0,0,1,2.29.61c1.57.85,3.09-.16,4.64-.55,3-.75,6,.53,9,.74,3.16.22,6.39.59,9.6.87,1.2.1,2.31-.07,1.69-1.81-.28-.78.18-1.43.53-2.1.68-.1.48,1.38,1.36.75.41-.29.31-.65,0-1-1-1.51-.06-2.31,1.19-2.69.74-.22,1.21-.34,1.32-1.2.28-2.24,3.63-2.83,3.05-5.58,0-.06.32-.22.51-.28,1.35-.37,1.59-1.14.7-2.24.74-.36,1.53-.1,2-.94,1.25-2.1,2.66-4.1,4-6.15a1.68,1.68,0,0,0,.22-2c-1.21-2.49.77-6.4,3.4-7.16,0,.52.17,1.15-.32,1.51-1.26.91-1.69,2-.91,3.42-1.85-.3-1.87-.26-1.27,2C272.88,168.69,273.49,168.21,273.54,167.33Zm-47.49,18.24c-.44,0-.53.33-.53.7s.17.68.57.69.59-.25.55-.66A.85.85,0,0,0,226.05,185.57Zm-.71-35.38c-.05-.11-.07-.29-.15-.33s-.22.08-.34.12c.05.12.06.3.15.33S225.22,150.24,225.34,150.19Z"/><path class="cls-1" d="M223,154.19c0-1.63-.22-3.29,2.44-2.56,1,.29.89-1.14,1.32-1.75s.05-.88-.61-1.08c-.94-.3-.5-1,0-1,1.36-.19,1.37-1,1.33-2.05,0-.52-.07-1.38.62-1.28,2,.26,1.73-.95,2.07-2.3s.86-3.41,3.31-2.18c.77.39,1-.55,1.18-1.06.3-1.22,1-1.52,2.2-1.61,1.74-.13,3.41-.84,5.2-.77.86,0,1.33,0,1.17,1.23-.12.94,0,2.28,1.49,2.47.92,2.16,2.86,1.51,4.52,1.65.1,1.07.7.63,1.23.41v.82c-.52.4-.41,1-.4,1.51s-.13,1,.45,1.24,1,0,1.32-.59c.65-1.28,1.28-.85,1.59.14.52,1.63,2.59,3.13.58,5.07a.7.7,0,0,0-.08.94c.51.59,1,.06,1.47-.1h.82c1.47,1,.6,2.33.36,3.52-.19,1-.42,1.72,1,1.15.92-.36,1.46.06,2,.83a11.18,11.18,0,0,1,1.86,4.47,3.66,3.66,0,0,0,1.5,2.52c1.12.77,2,1.57,3.52.74a1.71,1.71,0,0,1,2.24.09c.53.57,1.51,1.16,2.09.21.69-1.11-.38-1.58-1.85-2.05a8.67,8.67,0,0,0,3.83-1.67c1.23-1,2-.24,1.87,1.28h0c-2.63.76-4.61,4.67-3.4,7.16a1.68,1.68,0,0,1-.22,2c-1.33,2.05-2.74,4.05-4,6.15-.5.84-1.29.58-2,.94.89,1.1.65,1.87-.7,2.24-.19.06-.52.22-.51.28.58,2.75-2.77,3.34-3.05,5.58-.11.86-.58,1-1.32,1.2-1.25.38-2.23,1.18-1.19,2.69.28.4.38.76,0,1-.88.63-.68-.85-1.36-.75-.35.67-.81,1.32-.53,2.1.62,1.74-.49,1.91-1.69,1.81-3.21-.28-6.44-.65-9.6-.87-3-.21-5.94-1.49-9-.74-1.55.39-3.07,1.4-4.64.55a17.82,17.82,0,0,0-2.29-.61c-3-1.18-5.88.37-8.84.14-1.52-.11-3-.76-4.63-.33-.52.14-1.36-.51-.57-1.38a3.55,3.55,0,0,1,.74-.71c1.56-1,3.38-1.49,4.85-2.78a2.5,2.5,0,0,1,3.5.15,2.58,2.58,0,0,0,2.7.31c.93-.25.23-1.17.38-1.76,1.1-4.32-1.67-7.41-3.38-10.83-.43-.84-1-1.47-.8-2.6a3.17,3.17,0,0,0-1.69-3.41c-1.24-.72-2-1.48-1.46-3.1.39-1.19-.14-2.05-1.6-1.75-.65.13-1-.2-1.52-.56,1.11-1,2.81-1.79.34-3.19-.57-.33.6-1.62,1.15-1.65,1.66-.09,1.42-.94,1.37-2.1-.09-2.11,2.05-2.37,3.23-3.42.06.3.12.59.17.89.06,0,.14-.06.16-.1A.64.64,0,0,0,223,154.19Zm34.48,5.28a5.88,5.88,0,0,0,.7,3c.16.37.4.76.91.6s.48-.63.43-1a14.44,14.44,0,0,1-.4-3c.05-.78.17-1.94-.95-1.87S257.32,158.34,257.51,159.47Zm-6.51-9.7a1.37,1.37,0,0,0-.78,1.26c0,.52.34.68.79.65.76-.05.76-.62.74-1.17S251.58,149.73,251,149.77Zm-31.25,14.36a2.51,2.51,0,0,0,.05-2.57A2.18,2.18,0,0,0,219.75,164.13Zm3.26,2.32c-.82-.46-1.36-.49-1.93.11A1.37,1.37,0,0,0,223,166.45Zm4.54.2c-.16-.14-.29-.34-.41-.34a.51.51,0,0,0-.33.35c0,.25.06.54.4.45C227.34,167.08,227.42,166.84,227.55,166.65Zm35.06,13.88-.41.35c.12.12.22.31.36.34s.27-.14.41-.22Zm-20-36.86c0,.11-.17.25-.13.33s.21.11.32.16c.05-.12.16-.25.13-.33S242.74,143.72,242.63,143.67Zm21.72,30.12c-.12,0-.26-.16-.34-.13s-.1.21-.15.32c.11.05.25.16.33.13S264.3,173.9,264.35,173.79Z"/><path class="cls-1" d="M256.29,151.31h-.82c.07-.44-.19-1.23.24-1.26C256.45,150,256.22,150.81,256.29,151.31Z"/><path class="cls-1" d="M250.54,143.1v-.82c.38.09,1.06-.2,1,.5C251.49,143.2,250.91,143.07,250.54,143.1Z"/><path class="cls-1" d="M257.51,159.47c-.19-1.13-.33-2.2.69-2.27s1,1.09.95,1.87a14.44,14.44,0,0,0,.4,3c.05.38.08.86-.43,1s-.75-.23-.91-.6A5.88,5.88,0,0,1,257.51,159.47Z"/><path class="cls-1" d="M251,149.77c.58,0,.73.29.75.74s0,1.12-.74,1.17c-.45,0-.83-.13-.79-.65A1.37,1.37,0,0,1,251,149.77Z"/><path class="cls-1" d="M262.61,180.53l.36.47c-.14.08-.29.24-.41.22s-.24-.22-.36-.34Z"/><path class="cls-1" d="M242.63,143.67c.11.05.29.07.32.16s-.08.21-.13.33c-.11,0-.29-.08-.32-.16S242.58,143.78,242.63,143.67Z"/><path class="cls-1" d="M264.35,173.79c-.05.11-.08.29-.16.32s-.22-.08-.33-.13c.05-.11.07-.29.15-.32S264.23,173.74,264.35,173.79Z"/><path class="cls-1" d="M223,154.19a.64.64,0,0,1,.32.79s-.1.07-.16.1c-.05-.3-.11-.59-.17-.89Z"/><path class="cls-1" d="M205.36,301.94c-6.56,0-13.12.07-19.68.08-6.91,0-13.82-.1-20.73,0-7.74.09-13.33-3.23-17.53-9.73-6.83-10.55-14-20.87-21.07-31.29-.15-.22-.26-.45-.5-.88,1.16-.13,1.88.6,2.71.87a30.32,30.32,0,0,0,9.33,1.06q37.25,0,74.49,0c1.61,0,2.08.32,2,2-.61,12.23-1.1,24.46-1.65,36.68,0,.53.29,1.37-.79,1.28.38-1-.42-.74-.88-.75-2.31,0-4.62,0-6.93,0,.21-1.14,1.12-.74,1.8-.8s1.43.07,1.49-1c0-.45,0-1.06.71-1,.54.06.51.57.52,1,0,1.29,1.19,1.06,1.85,1.15.91.14.62-.89.75-1.39s-.09-1.34,0-2c1.12-5.71,1.15-11.51,1.38-17.27.2-4.77.74-9.53.53-14.32-.08-1.81-1.17-3.13-2.8-2.52-1.43.54-2.61,0-3.88.06-5.54.08-11.14-1.06-16.63.6a1.7,1.7,0,0,1-1.38-.1c-.94-.88-2-.64-3.11-.65-3.35,0-6.71,0-10.06,0s-6.57,0-9.86,0-6.4.16-9.62.06c-5.81-.19-11.63-.06-17.45-.05-1.34,0-3.26.84-3.8.58-2.89-1.4-2.23,1.4-3.14,2.25-.5.48-.27.92.15,1.2,1.89,1.26,2.26,3.55,3.51,5.25,2.11,2.86,3.71,6.11,5.92,8.88,1.31,1.63,3,2.93,3.39,5.06.8,0,1.22-1,2.11-.29-1.3,1.42-1.29,2.65.63,3.57.28.13.4.69.51,1.07.58,2,2.52,3.2,3.25,5.14.22.59.89.56,1.44.55h0c.07,1.37,1.24,1.17,2.08,1.57,2.29,1.1,4.22,3.16,7.18,2.32.69-.2.52.59.59,1,.68.69,1.55.4,2.33.4q19.22,0,38.44,0C203.79,301.6,204.65,301.32,205.36,301.94Zm-75.53-39c0,.47.2.79.71.8s.84-.11.82-.65a.85.85,0,0,0-.75-.85C130.08,262.18,129.86,262.47,129.83,263Zm-1.37-.78-.08-.17c0,.05-.11.09-.11.15s0,.1.08.16Z"/><path class="cls-1" d="M205.36,301.94c-.71-.62-1.57-.34-2.35-.34q-19.23,0-38.44,0c-.78,0-1.65.29-2.33-.4h41.89c2.31,0,4.62,0,6.93,0,.46,0,1.26-.29.88.75Z"/><path class="cls-1" d="M193.45,301.18h-1.23c-.08-.25-.09-.59-.27-.75-1.1-.94-6.82-.39-7.94.74H162.24c-.07-.43.1-1.22-.59-1-3,.84-4.89-1.22-7.18-2.32-.84-.4-2-.2-2.08-1.57.56-.09,1.31.25,1.56-.58s-.28-.93-.81-1.2a1.94,1.94,0,0,1-.59-.81c-.24-.44-.2-1.18-1-1a.9.9,0,0,0-.59.48,1.19,1.19,0,0,0,.76,1.49c.83.35.88.9.67,1.62-.55,0-1.22,0-1.44-.55-.73-1.94-2.67-3.1-3.25-5.14-.11-.38-.23-.94-.51-1.07-1.92-.92-1.93-2.15-.63-3.57-.89-.72-1.31.34-2.11.29-.41-2.13-2.08-3.43-3.39-5.06-2.21-2.77-3.81-6-5.92-8.88-1.25-1.7-1.62-4-3.51-5.25-.42-.28-.65-.72-.15-1.2.91-.85.25-3.65,3.14-2.25.54.26,2.46-.58,3.8-.58,5.82,0,11.64-.14,17.45.05,3.22.1,6.41-.07,9.62-.06s6.57,0,9.86,0,6.71,0,10.06,0c1.06,0,2.17-.23,3.11.65a1.7,1.7,0,0,0,1.38.1c5.49-1.66,11.09-.52,16.63-.6,1.27,0,2.45.48,3.88-.06,1.63-.61,2.72.71,2.8,2.52.21,4.79-.33,9.55-.53,14.32-.23,5.76-.26,11.56-1.38,17.27-.13.63.13,1.36,0,2s.16,1.53-.75,1.39c-.66-.09-1.8.14-1.85-1.15,0-.39,0-.9-.52-1-.73-.09-.69.52-.71,1-.06,1-.8.9-1.49,1s-1.59-.34-1.8.8h-6.57C196.28,299.44,194.74,299.44,193.45,301.18Z"/><path class="cls-1" d="M129.83,263c0-.5.25-.79.78-.7a.85.85,0,0,1,.75.85c0,.54-.36.67-.82.65S129.83,263.44,129.83,263Z"/><path class="cls-1" d="M128.46,262.19l-.11.14c0-.06-.09-.11-.08-.16s.07-.1.11-.15Z"/><path class="cls-1" d="M184,301.17c1.12-1.13,6.84-1.68,7.94-.74.18.16.19.5.27.75Z"/><path class="cls-1" d="M193.45,301.18c1.29-1.74,2.83-1.74,4.11,0Z"/><path class="cls-1" d="M152.38,296.26c.21-.72.16-1.27-.67-1.62a1.19,1.19,0,0,1-.76-1.49.9.9,0,0,1,.59-.48c.81-.18.77.56,1,1a1.94,1.94,0,0,0,.59.81c.53.27,1,.51.81,1.2s-1,.49-1.56.58Z"/></svg>