<svg id="Capa_2" data-name="Capa 2" xmlns="http://www.w3.org/2000/svg" viewBox="0 0 429.77 448.41"><defs><style>.cls-1{fill:#76c3f5;}</style></defs><title>Mesa de trabajo 2</title><path class="cls-1" d="M214.89,43.64a180.57,180.57,0,1,0,0,361.13c99.72,0,180.56-80.85,180.56-180.57A180.56,180.56,0,0,0,214.89,43.64Zm0,339.45A158.89,158.89,0,1,1,373.77,224.2,158.89,158.89,0,0,1,214.89,383.09Z"/><path class="cls-1" d="M214.89,290.73a66.52,66.52,0,0,1-44.27-116.18l-20.55-22.76a97.18,97.18,0,0,0,64.82,169.6l2.11,0-1.58-30.65Z"/><path class="cls-1" d="M312.08,224.2A97.2,97.2,0,0,0,214.89,127c-1.44,0-2.86,0-4.28.1v30.71c1.41-.09,2.84-.15,4.28-.15A66.52,66.52,0,0,1,258.4,274.51L278.18,298l1.46-1.29-20.07-23.18,20.07,23.18A97,97,0,0,0,312.08,224.2Z"/><path class="cls-1" d="M210.61,170.56V157.82a66.73,66.73,0,0,0-15.12,2.73Z"/><path class="cls-1" d="M210.61,127v-13l-21.27,16.36a97.41,97.41,0,0,1,21.27-3.3Z"/><path class="cls-1" d="M195.49,160.55a66.73,66.73,0,0,1,15.12-2.73V127.11a97.41,97.41,0,0,0-21.27,3.3l-18.23,14Z"/><path class="cls-1" d="M215.42,290.72a66.81,66.81,0,0,0,14.1-1.62l-14.63-8.77Z"/><path class="cls-1" d="M217.74,335.71l21.18-17.31a98.25,98.25,0,0,1-21.92,3Z"/><path class="cls-1" d="M229.52,289.1a66.81,66.81,0,0,1-14.1,1.62L217,321.37a98.25,98.25,0,0,0,21.92-3l16.7-13.66Z"/></svg>